<svg width="96" height="96" viewBox="0 0 96 96" fill="none" xmlns="http://www.w3.org/2000/svg">
<path d="M21.2 21.2C20.5 21.9 20 23.1 20 23.9C20 24.8 25.1 30.5 31.2 36.7L42.5 48L31.2 59.3C25.1 65.5 20 71.2 20 72.1C20 74 22 76 23.9 76C24.8 76 30.5 70.9 36.7 64.8L48 53.5L59.3 64.8C65.5 70.9 71.2 76 72.1 76C74 76 76 74 76 72.1C76 71.2 70.9 65.5 64.8 59.3L53.5 48L64.8 36.7C70.9 30.5 76 24.8 76 23.9C76 22 74 20 72.1 20C71.2 20 65.5 25.1 59.3 31.2L48 42.5L36.7 31.2C30.5 25.1 24.8 20 23.9 20C23.1 20 21.9 20.5 21.2 21.2Z" fill="white"/>
</svg>
