<svg width="452" height="452" viewBox="0 0 452 452" fill="none" xmlns="http://www.w3.org/2000/svg">
<path d="M212.7 58.9C196 65.6 185.6 84 189 100.7C194.1 125.4 219.3 138.5 241.6 128.1C253.3 122.6 260.7 113 263 100.2C265.8 84.3 257.2 67.7 242.2 60.3C234.6 56.6 220.3 55.9 212.7 58.9Z" fill="white"/>
<path d="M219.2 189.1C199 193 185.5 212.4 189 232.2C193.6 257.4 220.5 270.9 243.3 259.4C257.1 252.4 265.8 235.2 263.1 220.4C260 203.8 248.5 192 232.5 189.1C225.9 187.9 225.3 187.9 219.2 189.1Z" fill="white"/>
<path d="M217 321.4C202.1 325.5 192 336.4 189 351.5C185.9 367.2 194.9 384.4 209.9 391.8C214.9 394.2 216.6 394.5 226 394.5C235.5 394.5 237.1 394.2 242.2 391.7C257.2 384.3 265.8 367.7 263 351.8C259 329.9 237.6 315.7 217 321.4Z" fill="white"/>
</svg>
