<svg width="180" height="32" viewBox="0 0 180 32" fill="none" xmlns="http://www.w3.org/2000/svg">
<rect x="23.1111" y="3.55554" width="5.33333" height="19.5556" rx="2.66667" fill="#E9E9E9"/>
<rect x="13.3333" width="5.33333" height="32" rx="2.66667" fill="#E9E9E9"/>
<rect x="3.55554" y="10.6666" width="5.33333" height="18.6667" rx="2.66667" fill="#E9E9E9"/>
<path d="M51.5 23L47 18.1V23H45.6V8.2H47V16.96L51.4 12.08H53.36L48.18 17.52L53.4 23H51.5ZM54.5694 17.52C54.5694 16.4 54.7894 15.42 55.2294 14.58C55.6827 13.7267 56.3027 13.0733 57.0894 12.62C57.8894 12.1533 58.7894 11.92 59.7894 11.92C60.8294 11.92 61.7227 12.16 62.4694 12.64C63.2294 13.12 63.776 13.7333 64.1094 14.48V12.08H65.5094V23H64.1094V20.58C63.7627 21.3267 63.2094 21.9467 62.4494 22.44C61.7027 22.92 60.8094 23.16 59.7694 23.16C58.7827 23.16 57.8894 22.9267 57.0894 22.46C56.3027 21.9933 55.6827 21.3333 55.2294 20.48C54.7894 19.6267 54.5694 18.64 54.5694 17.52ZM64.1094 17.54C64.1094 16.66 63.9294 15.8867 63.5694 15.22C63.2094 14.5533 62.716 14.04 62.0894 13.68C61.476 13.32 60.796 13.14 60.0494 13.14C59.276 13.14 58.5827 13.3133 57.9694 13.66C57.356 14.0067 56.8694 14.5133 56.5094 15.18C56.1627 15.8333 55.9894 16.6133 55.9894 17.52C55.9894 18.4133 56.1627 19.2 56.5094 19.88C56.8694 20.5467 57.356 21.06 57.9694 21.42C58.5827 21.7667 59.276 21.94 60.0494 21.94C60.796 21.94 61.476 21.76 62.0894 21.4C62.716 21.04 63.2094 20.5267 63.5694 19.86C63.9294 19.1933 64.1094 18.42 64.1094 17.54ZM70.1055 14.02C70.4121 13.34 70.8788 12.8133 71.5055 12.44C72.1455 12.0667 72.9255 11.88 73.8455 11.88V13.34H73.4655C72.4521 13.34 71.6388 13.6133 71.0255 14.16C70.4121 14.7067 70.1055 15.62 70.1055 16.9V23H68.7055V12.08H70.1055V14.02ZM75.3116 17.52C75.3116 16.4 75.5316 15.42 75.9716 14.58C76.4249 13.7267 77.0449 13.0733 77.8316 12.62C78.6316 12.1533 79.5316 11.92 80.5316 11.92C81.5716 11.92 82.4649 12.16 83.2116 12.64C83.9716 13.12 84.5182 13.7333 84.8516 14.48V12.08H86.2516V23H84.8516V20.58C84.5049 21.3267 83.9516 21.9467 83.1916 22.44C82.4449 22.92 81.5516 23.16 80.5116 23.16C79.5249 23.16 78.6316 22.9267 77.8316 22.46C77.0449 21.9933 76.4249 21.3333 75.9716 20.48C75.5316 19.6267 75.3116 18.64 75.3116 17.52ZM84.8516 17.54C84.8516 16.66 84.6716 15.8867 84.3116 15.22C83.9516 14.5533 83.4582 14.04 82.8316 13.68C82.2182 13.32 81.5382 13.14 80.7916 13.14C80.0182 13.14 79.3249 13.3133 78.7116 13.66C78.0982 14.0067 77.6116 14.5133 77.2516 15.18C76.9049 15.8333 76.7316 16.6133 76.7316 17.52C76.7316 18.4133 76.9049 19.2 77.2516 19.88C77.6116 20.5467 78.0982 21.06 78.7116 21.42C79.3249 21.7667 80.0182 21.94 80.7916 21.94C81.5382 21.94 82.2182 21.76 82.8316 21.4C83.4582 21.04 83.9516 20.5267 84.3116 19.86C84.6716 19.1933 84.8516 18.42 84.8516 17.54ZM95.3477 23L90.8477 18.1V23H89.4477V8.2H90.8477V16.96L95.2477 12.08H97.2077L92.0277 17.52L97.2477 23H95.3477ZM100.877 13.26V20.04C100.877 20.7067 101.004 21.1667 101.257 21.42C101.51 21.6733 101.957 21.8 102.597 21.8H103.877V23H102.377C101.39 23 100.657 22.7733 100.177 22.32C99.697 21.8533 99.457 21.0933 99.457 20.04V13.26H97.937V12.08H99.457V9.34H100.877V12.08H103.877V13.26H100.877ZM116.066 16.98C116.066 17.46 116.053 17.8267 116.026 18.08H106.966C107.006 18.9067 107.206 19.6133 107.566 20.2C107.926 20.7867 108.399 21.2333 108.986 21.54C109.573 21.8333 110.213 21.98 110.906 21.98C111.813 21.98 112.573 21.76 113.186 21.32C113.813 20.88 114.226 20.2867 114.426 19.54H115.906C115.639 20.6067 115.066 21.48 114.186 22.16C113.319 22.8267 112.226 23.16 110.906 23.16C109.879 23.16 108.959 22.9333 108.146 22.48C107.333 22.0133 106.693 21.36 106.226 20.52C105.773 19.6667 105.546 18.6733 105.546 17.54C105.546 16.4067 105.773 15.4133 106.226 14.56C106.679 13.7067 107.313 13.0533 108.126 12.6C108.939 12.1467 109.866 11.92 110.906 11.92C111.946 11.92 112.853 12.1467 113.626 12.6C114.413 13.0533 115.013 13.6667 115.426 14.44C115.853 15.2 116.066 16.0467 116.066 16.98ZM114.646 16.94C114.659 16.1267 114.493 15.4333 114.146 14.86C113.813 14.2867 113.353 13.8533 112.766 13.56C112.179 13.2667 111.539 13.12 110.846 13.12C109.806 13.12 108.919 13.4533 108.186 14.12C107.453 14.7867 107.046 15.7267 106.966 16.94H114.646ZM120.027 14.02C120.334 13.34 120.801 12.8133 121.427 12.44C122.067 12.0667 122.847 11.88 123.767 11.88V13.34H123.387C122.374 13.34 121.561 13.6133 120.947 14.16C120.334 14.7067 120.027 15.62 120.027 16.9V23H118.627V12.08H120.027V14.02ZM135.753 16.98C135.753 17.46 135.74 17.8267 135.713 18.08H126.653C126.693 18.9067 126.893 19.6133 127.253 20.2C127.613 20.7867 128.087 21.2333 128.673 21.54C129.26 21.8333 129.9 21.98 130.593 21.98C131.5 21.98 132.26 21.76 132.873 21.32C133.5 20.88 133.913 20.2867 134.113 19.54H135.593C135.327 20.6067 134.753 21.48 133.873 22.16C133.007 22.8267 131.913 23.16 130.593 23.16C129.567 23.16 128.647 22.9333 127.833 22.48C127.02 22.0133 126.38 21.36 125.913 20.52C125.46 19.6667 125.233 18.6733 125.233 17.54C125.233 16.4067 125.46 15.4133 125.913 14.56C126.367 13.7067 127 13.0533 127.813 12.6C128.627 12.1467 129.553 11.92 130.593 11.92C131.633 11.92 132.54 12.1467 133.313 12.6C134.1 13.0533 134.7 13.6667 135.113 14.44C135.54 15.2 135.753 16.0467 135.753 16.98ZM134.333 16.94C134.347 16.1267 134.18 15.4333 133.833 14.86C133.5 14.2867 133.04 13.8533 132.453 13.56C131.867 13.2667 131.227 13.12 130.533 13.12C129.493 13.12 128.607 13.4533 127.873 14.12C127.14 14.7867 126.733 15.7267 126.653 16.94H134.333ZM139.715 14.02C140.022 13.34 140.488 12.8133 141.115 12.44C141.755 12.0667 142.535 11.88 143.455 11.88V13.34H143.075C142.062 13.34 141.248 13.6133 140.635 14.16C140.022 14.7067 139.715 15.62 139.715 16.9V23H138.315V12.08H139.715V14.02ZM145.801 23.1C145.508 23.1 145.261 23 145.061 22.8C144.874 22.6 144.781 22.3533 144.781 22.06C144.781 21.7667 144.874 21.5267 145.061 21.34C145.261 21.14 145.508 21.04 145.801 21.04C146.081 21.04 146.314 21.14 146.501 21.34C146.701 21.5267 146.801 21.7667 146.801 22.06C146.801 22.3533 146.701 22.6 146.501 22.8C146.314 23 146.081 23.1 145.801 23.1ZM154.314 11.88C155.62 11.88 156.687 12.2867 157.514 13.1C158.34 13.9 158.754 15.0667 158.754 16.6V23H157.374V16.76C157.374 15.5733 157.074 14.6667 156.474 14.04C155.887 13.4133 155.08 13.1 154.054 13.1C153 13.1 152.16 13.4333 151.534 14.1C150.907 14.7667 150.594 15.7467 150.594 17.04V23H149.194V12.08H150.594V13.94C150.94 13.2733 151.44 12.7667 152.094 12.42C152.747 12.06 153.487 11.88 154.314 11.88ZM171.73 16.98C171.73 17.46 171.717 17.8267 171.69 18.08H162.63C162.67 18.9067 162.87 19.6133 163.23 20.2C163.59 20.7867 164.063 21.2333 164.65 21.54C165.237 21.8333 165.877 21.98 166.57 21.98C167.477 21.98 168.237 21.76 168.85 21.32C169.477 20.88 169.89 20.2867 170.09 19.54H171.57C171.303 20.6067 170.73 21.48 169.85 22.16C168.983 22.8267 167.89 23.16 166.57 23.16C165.543 23.16 164.623 22.9333 163.81 22.48C162.997 22.0133 162.357 21.36 161.89 20.52C161.437 19.6667 161.21 18.6733 161.21 17.54C161.21 16.4067 161.437 15.4133 161.89 14.56C162.343 13.7067 162.977 13.0533 163.79 12.6C164.603 12.1467 165.53 11.92 166.57 11.92C167.61 11.92 168.517 12.1467 169.29 12.6C170.077 13.0533 170.677 13.6667 171.09 14.44C171.517 15.2 171.73 16.0467 171.73 16.98ZM170.31 16.94C170.323 16.1267 170.157 15.4333 169.81 14.86C169.477 14.2867 169.017 13.8533 168.43 13.56C167.843 13.2667 167.203 13.12 166.51 13.12C165.47 13.12 164.583 13.4533 163.85 14.12C163.117 14.7867 162.71 15.7267 162.63 16.94H170.31ZM176.111 13.26V20.04C176.111 20.7067 176.238 21.1667 176.491 21.42C176.745 21.6733 177.191 21.8 177.831 21.8H179.111V23H177.611C176.625 23 175.891 22.7733 175.411 22.32C174.931 21.8533 174.691 21.0933 174.691 20.04V13.26H173.171V12.08H174.691V9.34H176.111V12.08H179.111V13.26H176.111Z" fill="#C9C9C9"/>
</svg>
