<?xml version="1.0" standalone="no"?>
<!DOCTYPE svg PUBLIC "-//W3C//DTD SVG 20010904//EN"
 "http://www.w3.org/TR/2001/REC-SVG-20010904/DTD/svg10.dtd">
<svg version="1.0" xmlns="http://www.w3.org/2000/svg"
 width="700.000000pt" height="700.000000pt" viewBox="0 0 700.000000 700.000000"
 preserveAspectRatio="xMidYMid meet">
<metadata>
Created by potrace 1.14, written by Peter Selinger 2001-2017
</metadata>
<g transform="translate(0.000000,700.000000) scale(0.100000,-0.100000)"
fill="#000000" stroke="none">
<path d="M3280 6994 c-19 -2 -84 -9 -145 -14 -639 -62 -1264 -315 -1795 -726
-149 -115 -481 -446 -595 -594 -410 -532 -653 -1132 -727 -1795 -17 -155 -17
-575 0 -730 75 -673 332 -1300 748 -1820 114 -143 339 -372 484 -494 537 -451
1163 -717 1885 -803 142 -17 586 -17 730 0 682 79 1268 318 1802 734 138 107
389 351 512 498 451 538 717 1162 803 1885 16 139 16 595 0 730 -77 629 -275
1158 -620 1649 -234 333 -577 668 -917 896 -460 308 -968 495 -1535 566 -117
15 -552 27 -630 18z m366 -1529 c67 -33 137 -110 163 -181 21 -54 21 -64 21
-1784 0 -1720 0 -1730 -21 -1784 -27 -73 -96 -148 -167 -183 -49 -24 -69 -28
-142 -28 -73 0 -93 4 -142 28 -71 35 -140 110 -167 183 -21 54 -21 64 -21
1784 0 1714 0 1730 20 1784 23 61 83 134 137 167 89 56 222 61 319 14z m1232
-450 c101 -55 156 -139 173 -263 6 -49 9 -398 7 -977 l-3 -900 -29 -62 c-33
-73 -103 -144 -173 -175 -35 -16 -69 -22 -128 -22 -72 -1 -88 3 -147 32 -73
36 -123 86 -160 161 l-23 46 -3 954 c-3 1047 -5 1008 57 1102 33 50 100 102
158 124 26 10 68 14 128 12 77 -2 97 -7 143 -32z m-2471 -877 c67 -25 137 -92
171 -166 l27 -57 0 -915 0 -915 -27 -57 c-95 -203 -358 -256 -525 -105 -55 50
-91 121 -103 203 -13 92 -13 1656 0 1748 33 224 241 345 457 264z"/>
</g>
</svg>
