<svg width="135" height="16" viewBox="0 0 135 16" fill="#d4d4d4" xmlns="http://www.w3.org/2000/svg">
<path d="M6.5 15L2 10.1V15H0.6V0.2H2V8.96L6.4 4.08H8.36L3.18 9.52L8.4 15H6.5ZM9.56938 9.52C9.56938 8.4 9.78938 7.42 10.2294 6.58C10.6827 5.72667 11.3027 5.07333 12.0894 4.62C12.8894 4.15333 13.7894 3.92 14.7894 3.92C15.8294 3.92 16.7227 4.16 17.4694 4.64C18.2294 5.12 18.776 5.73333 19.1094 6.48V4.08H20.5094V15H19.1094V12.58C18.7627 13.3267 18.2094 13.9467 17.4494 14.44C16.7027 14.92 15.8094 15.16 14.7694 15.16C13.7827 15.16 12.8894 14.9267 12.0894 14.46C11.3027 13.9933 10.6827 13.3333 10.2294 12.48C9.78938 11.6267 9.56938 10.64 9.56938 9.52ZM19.1094 9.54C19.1094 8.66 18.9294 7.88667 18.5694 7.22C18.2094 6.55333 17.716 6.04 17.0894 5.68C16.476 5.32 15.796 5.14 15.0494 5.14C14.276 5.14 13.5827 5.31333 12.9694 5.66C12.356 6.00667 11.8694 6.51333 11.5094 7.18C11.1627 7.83333 10.9894 8.61333 10.9894 9.52C10.9894 10.4133 11.1627 11.2 11.5094 11.88C11.8694 12.5467 12.356 13.06 12.9694 13.42C13.5827 13.7667 14.276 13.94 15.0494 13.94C15.796 13.94 16.476 13.76 17.0894 13.4C17.716 13.04 18.2094 12.5267 18.5694 11.86C18.9294 11.1933 19.1094 10.42 19.1094 9.54ZM25.1055 6.02C25.4121 5.34 25.8788 4.81333 26.5055 4.44C27.1455 4.06667 27.9255 3.88 28.8455 3.88V5.34H28.4655C27.4521 5.34 26.6388 5.61333 26.0255 6.16C25.4121 6.70667 25.1055 7.62 25.1055 8.9V15H23.7055V4.08H25.1055V6.02ZM30.3116 9.52C30.3116 8.4 30.5316 7.42 30.9716 6.58C31.4249 5.72667 32.0449 5.07333 32.8316 4.62C33.6316 4.15333 34.5316 3.92 35.5316 3.92C36.5716 3.92 37.4649 4.16 38.2116 4.64C38.9716 5.12 39.5182 5.73333 39.8516 6.48V4.08H41.2516V15H39.8516V12.58C39.5049 13.3267 38.9516 13.9467 38.1916 14.44C37.4449 14.92 36.5516 15.16 35.5116 15.16C34.5249 15.16 33.6316 14.9267 32.8316 14.46C32.0449 13.9933 31.4249 13.3333 30.9716 12.48C30.5316 11.6267 30.3116 10.64 30.3116 9.52ZM39.8516 9.54C39.8516 8.66 39.6716 7.88667 39.3116 7.22C38.9516 6.55333 38.4582 6.04 37.8316 5.68C37.2182 5.32 36.5382 5.14 35.7916 5.14C35.0182 5.14 34.3249 5.31333 33.7116 5.66C33.0982 6.00667 32.6116 6.51333 32.2516 7.18C31.9049 7.83333 31.7316 8.61333 31.7316 9.52C31.7316 10.4133 31.9049 11.2 32.2516 11.88C32.6116 12.5467 33.0982 13.06 33.7116 13.42C34.3249 13.7667 35.0182 13.94 35.7916 13.94C36.5382 13.94 37.2182 13.76 37.8316 13.4C38.4582 13.04 38.9516 12.5267 39.3116 11.86C39.6716 11.1933 39.8516 10.42 39.8516 9.54ZM50.3477 15L45.8477 10.1V15H44.4477V0.2H45.8477V8.96L50.2477 4.08H52.2077L47.0277 9.52L52.2477 15H50.3477ZM55.877 5.26V12.04C55.877 12.7067 56.0037 13.1667 56.257 13.42C56.5104 13.6733 56.957 13.8 57.597 13.8H58.877V15H57.377C56.3904 15 55.657 14.7733 55.177 14.32C54.697 13.8533 54.457 13.0933 54.457 12.04V5.26H52.937V4.08H54.457V1.34H55.877V4.08H58.877V5.26H55.877ZM71.0659 8.98C71.0659 9.46 71.0526 9.82667 71.0259 10.08H61.9659C62.0059 10.9067 62.2059 11.6133 62.5659 12.2C62.9259 12.7867 63.3993 13.2333 63.9859 13.54C64.5726 13.8333 65.2126 13.98 65.9059 13.98C66.8126 13.98 67.5726 13.76 68.1859 13.32C68.8126 12.88 69.2259 12.2867 69.4259 11.54H70.9059C70.6393 12.6067 70.0659 13.48 69.1859 14.16C68.3193 14.8267 67.2259 15.16 65.9059 15.16C64.8793 15.16 63.9593 14.9333 63.1459 14.48C62.3326 14.0133 61.6926 13.36 61.2259 12.52C60.7726 11.6667 60.5459 10.6733 60.5459 9.54C60.5459 8.40667 60.7726 7.41333 61.2259 6.56C61.6793 5.70667 62.3126 5.05333 63.1259 4.6C63.9393 4.14667 64.8659 3.92 65.9059 3.92C66.9459 3.92 67.8526 4.14667 68.6259 4.6C69.4126 5.05333 70.0126 5.66667 70.4259 6.44C70.8526 7.2 71.0659 8.04667 71.0659 8.98ZM69.6459 8.94C69.6593 8.12667 69.4926 7.43333 69.1459 6.86C68.8126 6.28667 68.3526 5.85333 67.7659 5.56C67.1793 5.26667 66.5393 5.12 65.8459 5.12C64.8059 5.12 63.9193 5.45333 63.1859 6.12C62.4526 6.78667 62.0459 7.72667 61.9659 8.94H69.6459ZM75.0273 6.02C75.334 5.34 75.8007 4.81333 76.4273 4.44C77.0673 4.06667 77.8473 3.88 78.7673 3.88V5.34H78.3873C77.374 5.34 76.5607 5.61333 75.9473 6.16C75.334 6.70667 75.0273 7.62 75.0273 8.9V15H73.6273V4.08H75.0273V6.02ZM90.7534 8.98C90.7534 9.46 90.7401 9.82667 90.7134 10.08H81.6534C81.6934 10.9067 81.8934 11.6133 82.2534 12.2C82.6134 12.7867 83.0868 13.2333 83.6734 13.54C84.2601 13.8333 84.9001 13.98 85.5934 13.98C86.5001 13.98 87.2601 13.76 87.8734 13.32C88.5001 12.88 88.9134 12.2867 89.1134 11.54H90.5934C90.3268 12.6067 89.7534 13.48 88.8734 14.16C88.0068 14.8267 86.9134 15.16 85.5934 15.16C84.5668 15.16 83.6468 14.9333 82.8334 14.48C82.0201 14.0133 81.3801 13.36 80.9134 12.52C80.4601 11.6667 80.2334 10.6733 80.2334 9.54C80.2334 8.40667 80.4601 7.41333 80.9134 6.56C81.3668 5.70667 82.0001 5.05333 82.8134 4.6C83.6268 4.14667 84.5534 3.92 85.5934 3.92C86.6334 3.92 87.5401 4.14667 88.3134 4.6C89.1001 5.05333 89.7001 5.66667 90.1134 6.44C90.5401 7.2 90.7534 8.04667 90.7534 8.98ZM89.3334 8.94C89.3468 8.12667 89.1801 7.43333 88.8334 6.86C88.5001 6.28667 88.0401 5.85333 87.4534 5.56C86.8668 5.26667 86.2268 5.12 85.5334 5.12C84.4934 5.12 83.6068 5.45333 82.8734 6.12C82.1401 6.78667 81.7334 7.72667 81.6534 8.94H89.3334ZM94.7148 6.02C95.0215 5.34 95.4882 4.81333 96.1148 4.44C96.7548 4.06667 97.5348 3.88 98.4548 3.88V5.34H98.0748C97.0615 5.34 96.2482 5.61333 95.6348 6.16C95.0215 6.70667 94.7148 7.62 94.7148 8.9V15H93.3148V4.08H94.7148V6.02ZM100.801 15.1C100.508 15.1 100.261 15 100.061 14.8C99.8743 14.6 99.7809 14.3533 99.7809 14.06C99.7809 13.7667 99.8743 13.5267 100.061 13.34C100.261 13.14 100.508 13.04 100.801 13.04C101.081 13.04 101.314 13.14 101.501 13.34C101.701 13.5267 101.801 13.7667 101.801 14.06C101.801 14.3533 101.701 14.6 101.501 14.8C101.314 15 101.081 15.1 100.801 15.1ZM109.314 3.88C110.62 3.88 111.687 4.28667 112.514 5.1C113.34 5.9 113.754 7.06667 113.754 8.6V15H112.374V8.76C112.374 7.57333 112.074 6.66667 111.474 6.04C110.887 5.41333 110.08 5.1 109.054 5.1C108 5.1 107.16 5.43333 106.534 6.1C105.907 6.76667 105.594 7.74667 105.594 9.04V15H104.194V4.08H105.594V5.94C105.94 5.27333 106.44 4.76667 107.094 4.42C107.747 4.06 108.487 3.88 109.314 3.88ZM126.73 8.98C126.73 9.46 126.717 9.82667 126.69 10.08H117.63C117.67 10.9067 117.87 11.6133 118.23 12.2C118.59 12.7867 119.063 13.2333 119.65 13.54C120.237 13.8333 120.877 13.98 121.57 13.98C122.477 13.98 123.237 13.76 123.85 13.32C124.477 12.88 124.89 12.2867 125.09 11.54H126.57C126.303 12.6067 125.73 13.48 124.85 14.16C123.983 14.8267 122.89 15.16 121.57 15.16C120.543 15.16 119.623 14.9333 118.81 14.48C117.997 14.0133 117.357 13.36 116.89 12.52C116.437 11.6667 116.21 10.6733 116.21 9.54C116.21 8.40667 116.437 7.41333 116.89 6.56C117.343 5.70667 117.977 5.05333 118.79 4.6C119.603 4.14667 120.53 3.92 121.57 3.92C122.61 3.92 123.517 4.14667 124.29 4.6C125.077 5.05333 125.677 5.66667 126.09 6.44C126.517 7.2 126.73 8.04667 126.73 8.98ZM125.31 8.94C125.323 8.12667 125.157 7.43333 124.81 6.86C124.477 6.28667 124.017 5.85333 123.43 5.56C122.843 5.26667 122.203 5.12 121.51 5.12C120.47 5.12 119.583 5.45333 118.85 6.12C118.117 6.78667 117.71 7.72667 117.63 8.94H125.31ZM131.111 5.26V12.04C131.111 12.7067 131.238 13.1667 131.491 13.42C131.745 13.6733 132.191 13.8 132.831 13.8H134.111V15H132.611C131.625 15 130.891 14.7733 130.411 14.32C129.931 13.8533 129.691 13.0933 129.691 12.04V5.26H128.171V4.08H129.691V1.34H131.111V4.08H134.111V5.26H131.111Z"/>
</svg>
