<svg width="130" height="130" xmlns="http://www.w3.org/2000/svg">
 <g>
  <title>background</title>
  <rect x="-1" y="-1" width="132" height="132" id="canvas_background" fill="none"/>
 </g>

 <g>
  <title>Layer 1</title>
  <g id="svg_1">
   <path d="m57.05637,105.55616l0,1.79999c0,0.23999 -0.14996,0.48999 -0.47998,0.67999l-20.20996,11.66003c-0.65002,0.38 -1.71002,0.38 -2.36005,0l-26.32,-15.29999c-0.31995,-0.19 -0.47998,-0.42999 -0.47998,-0.67004l-0.01001,-1.79999c0,-0.25 0.16003,-0.5 0.48999,-0.69l20.21002,-11.65997c0.65002,-0.38 1.70001,-0.38 2.34998,0l26.33001,15.29998c0.32001,0.18 0.47998,0.43 0.47998,0.68z" fill="#D4DAE8" id="svg_3"/>
   <path d="m118.84641,80.53614c0.01001,-0.04999 0.01001,-0.08997 0.01001,-0.13995l-0.01001,3.46997c-0.01001,1.47998 -0.97998,2.96002 -2.91998,4.08002l-2.55005,-1.47003l-0.00995,1.47003c-3.91003,2.27002 -10.26001,2.27002 -14.20001,0c-1.33002,-0.77002 -2.22003,-1.70001 -2.64001,-2.71002l0,-1.25l-0.31,0.03003l0,-0.20001l0.01001,-3.47003c0,-1.47998 0.96997,-2.95996 2.91998,-4.08997c3.90997,-2.27002 10.26001,-2.27002 14.19,0l-0.01001,1.5l2.57001,-1.5c2.03997,1.17998 3.01,2.73998 2.95001,4.27996z" fill="#E4E8F4" id="svg_4"/>
   <polygon fill="#E4E8F4" points="122.80636596679688,60.896180152893066 122.73641967773438,65.96619129180908 117.08639526367188,69.24615955352783 111.4063949584961,65.96619129180908 111.45639038085938,62.866150856018066 108.75637817382812,64.43616199493408 103.07638549804688,61.15613269805908 103.07638549804688,60.94617176055908 100.42642211914062,59.626160621643066 94.74636840820312,56.346131324768066 94.76638793945312,53.2661828994751 92.09640502929688,54.816163063049316 86.4164047241211,51.53614139556885 86.42642211914062,48.45618152618408 83.76638793945312,50.0061731338501 78.08639526367188,46.72614002227783 78.1664047241211,20.216191291809082 83.80636596679688,16.936161994934082 89.47640991210938,20.216191291809082 89.45639038085938,29.406132698059082 92.1363754272461,27.846142768859863 97.81637573242188,31.1261625289917 97.77639770507812,40.326172828674316 100.46640014648438,38.7661828994751 106.1463851928711,42.04615116119385 106.11642456054688,51.2361536026001 108.79641723632812,49.67615222930908 114.47640991210938,52.95618152618408 114.4164047241211,59.18616199493408 117.1263656616211,57.616150856018066 " id="svg_6"/>
   <path d="m7.19159,101.92827l0.01104,1.7971c0,0.24259 0.16534,0.48512 0.48511,0.67259l26.31712,15.3029c0.65045,0.37489 1.70889,0.37489 2.35941,0l20.20913,-11.6646c0.33075,-0.18748 0.48511,-0.44103 0.48511,-0.68356l0,-1.79711c0,0.24252 -0.16534,0.49615 -0.49615,0.68356l-20.19809,11.66467c-0.66155,0.37482 -1.70896,0.37482 -2.35941,0l-26.32816,-15.30297c-0.31977,-0.18747 -0.48511,-0.42999 -0.48511,-0.67258z" fill="#D4DAE8" id="svg_11"/>
   <path d="m7.68909,101.24001c-0.65465,0.37797 -0.65808,0.98757 -0.00769,1.36554l26.32338,15.29748c0.6504,0.37797 1.70283,0.37798 2.35748,0.00001l20.20251,-11.66393c0.65465,-0.37796 0.6581,-0.98759 0.00771,-1.36555l-26.32337,-15.29748c-0.6504,-0.37798 -1.70285,-0.37796 -2.3575,0l-20.20252,11.66393z" fill="#E4E8F4" id="svg_13"/>
   <polygon fill="#CAD0DD" points="8.85525894165039,101.81186389923096 9.559819221496582,102.2183427810669 28.979841232299805,91.00890064239502 28.979841232299805,90.1960039138794 " id="svg_16"/>
   <polygon fill="#BAC1CE" points="28.979841232299805,90.1960039138794 28.979841232299805,91.00890064239502 34.32710266113281,94.12514209747314 35.03166198730469,93.71867084503174 " id="svg_17"/>
   <polygon fill="#576CFB" points="9.559819221496582,102.2183427810669 14.916129112243652,105.33458423614502 34.32710266113281,94.12514209747314 28.979841232299805,91.00890064239502 " id="svg_18"/>
   <path d="m33.09693,96.48076c-0.11264,0.06503 -0.10617,0.16662 0.00574,0.23165l3.12606,1.81667c0.1119,0.06503 0.28727,0.06911 0.39991,0.00408l3.15357,-1.82072c0.10557,-0.06095 0.10617,-0.16662 -0.00574,-0.23165l-3.12606,-1.81667c-0.1119,-0.06503 -0.29433,-0.06503 -0.39991,-0.00407l-3.15357,1.82071z" fill="#FED57A" id="svg_19"/>
   <path d="m27.80344,99.53696c-0.11261,0.06501 -0.10617,0.16662 0.00574,0.23165l3.12606,1.81667c0.1119,0.06503 0.2873,0.0691 0.39991,0.00408l3.15358,-1.82072c0.10559,-0.06097 0.10617,-0.16663 -0.00574,-0.23165l-3.12606,-1.81667c-0.1119,-0.06503 -0.29431,-0.06504 -0.39991,-0.00408l-3.15358,1.82072z" fill="#5B5E71" id="svg_20"/>
   <path d="m22.50995,102.59315c-0.11261,0.06502 -0.10617,0.16663 0.00574,0.23166l3.12606,1.81667c0.11191,0.06503 0.28729,0.0691 0.39991,0.00408l3.15358,-1.82072c0.10559,-0.06097 0.10619,-0.16664 -0.00571,-0.23167l-3.12606,-1.81667c-0.1119,-0.06503 -0.29434,-0.06503 -0.39993,-0.00407l-3.15359,1.82072z" fill="#5B5E71" id="svg_21"/>
   <path d="m17.21648,105.64933c-0.11264,0.06503 -0.11323,0.17071 -0.00133,0.23574l3.12606,1.81667c0.11191,0.06503 0.29434,0.06503 0.40697,0l3.15355,-1.8207c0.10559,-0.06097 0.10619,-0.16664 -0.00571,-0.23167l-3.12606,-1.81667c-0.1119,-0.06503 -0.29434,-0.06503 -0.39993,-0.00407l-3.15355,1.8207z" fill="#9AD898" id="svg_22"/>
   <path d="m38.0483,99.35818c-0.11264,0.06503 -0.10617,0.16663 0.00571,0.23164l3.12608,1.81668c0.1119,0.06503 0.28725,0.0691 0.39989,0.00407l3.15357,-1.82072c0.10557,-0.06095 0.10619,-0.16661 -0.00571,-0.23164l-3.12608,-1.81668c-0.11188,-0.06502 -0.29431,-0.06502 -0.39988,-0.00407l-3.15358,1.82072z" fill="#5B5E71" id="svg_23"/>
   <path d="m32.75481,102.41438c-0.11261,0.06502 -0.10617,0.16663 0.00571,0.23164l3.12608,1.81668c0.1119,0.06503 0.28727,0.06908 0.39988,0.00407l3.15358,-1.82072c0.10559,-0.06097 0.10619,-0.16661 -0.00571,-0.23164l-3.12608,-1.81668c-0.11188,-0.06502 -0.29429,-0.06503 -0.39988,-0.00407l-3.15358,1.82072z" fill="#5B5E71" id="svg_24"/>
   <path d="m27.46132,105.47058c-0.11261,0.06502 -0.10617,0.16663 0.00571,0.23164l3.12608,1.81668c0.1119,0.06503 0.28727,0.06908 0.39988,0.00407l3.15358,-1.82072c0.10559,-0.06097 0.10621,-0.16663 -0.00569,-0.23166l-3.12608,-1.81668c-0.11188,-0.06502 -0.29431,-0.06502 -0.39991,-0.00405l-3.15357,1.82072z" fill="#5B5E71" id="svg_25"/>
   <path d="m22.16786,108.52676c-0.11264,0.06503 -0.11323,0.1707 -0.00135,0.23573l3.12608,1.81668c0.1119,0.06503 0.29431,0.06502 0.40695,-0.00002l3.15355,-1.8207c0.10559,-0.06097 0.10621,-0.16663 -0.00569,-0.23166l-3.12608,-1.81668c-0.11188,-0.06502 -0.29431,-0.06502 -0.39991,-0.00405l-3.15355,1.8207z" fill="#9AD898" id="svg_26"/>
   <path d="m42.99967,102.23561c-0.11264,0.06503 -0.10619,0.16661 0.00571,0.23164l3.12608,1.81668c0.11188,0.06502 0.28725,0.0691 0.39989,0.00407l3.15358,-1.82072c0.10557,-0.06095 0.10616,-0.16663 -0.00572,-0.23164l-3.12608,-1.81668c-0.1119,-0.06503 -0.29431,-0.06502 -0.39988,-0.00407l-3.15358,1.82072z" fill="#5B5E71" id="svg_27"/>
   <path d="m37.70619,105.2918c-0.11261,0.06502 -0.10619,0.16661 0.00571,0.23164l3.12608,1.81668c0.11188,0.06502 0.28727,0.06908 0.39989,0.00407l3.15357,-1.82072c0.1056,-0.06097 0.10617,-0.16663 -0.00571,-0.23164l-3.12608,-1.81668c-0.1119,-0.06503 -0.29429,-0.06503 -0.39988,-0.00407l-3.15358,1.82072z" fill="#5B5E71" id="svg_28"/>
   <path d="m32.4127,108.348c-0.11261,0.06502 -0.10619,0.16661 0.00571,0.23164l3.12608,1.81668c0.11188,0.06502 0.28727,0.06908 0.39988,0.00407l3.15358,-1.82072c0.10559,-0.06097 0.10619,-0.16664 -0.00569,-0.23166l-3.12608,-1.81668c-0.1119,-0.06503 -0.29431,-0.06502 -0.39991,-0.00405l-3.15357,1.82072z" fill="#5B5E71" id="svg_29"/>
   <path d="m47.95102,105.11302c-0.11264,0.06503 -0.10617,0.16663 -0.00126,0.22759l3.13305,1.82073c0.11191,0.06503 0.28727,0.06911 0.39991,0.00408l3.15358,-1.82072c0.10557,-0.06095 0.10617,-0.16663 -0.00574,-0.23166l-3.13305,-1.82073c-0.10491,-0.06097 -0.28734,-0.06097 -0.39291,-0.00002l-3.15358,1.82073z" fill="#5B5E71" id="svg_30"/>
   <path d="m42.65754,108.16922c-0.11261,0.06502 -0.10617,0.16663 -0.00126,0.22759l3.13305,1.82073c0.1119,0.06503 0.2873,0.0691 0.39991,0.00408l3.15358,-1.82072c0.10559,-0.06097 0.10616,-0.16663 -0.00574,-0.23166l-3.13305,-1.82073c-0.10491,-0.06097 -0.28732,-0.06098 -0.39291,-0.00002l-3.15358,1.82073z" fill="#5B5E71" id="svg_31"/>
   <path d="m37.36405,111.22541c-0.11261,0.06502 -0.10617,0.16663 -0.00126,0.22759l3.13306,1.82073c0.1119,0.06503 0.2873,0.0691 0.39991,0.00408l3.15357,-1.82072c0.1056,-0.06096 0.10619,-0.16663 -0.00571,-0.23167l-3.13305,-1.82073c-0.10491,-0.06097 -0.28734,-0.06097 -0.39294,0l-3.15358,1.82072z" fill="#5B5E71" id="svg_32"/>
   <path d="m40.8405,107.34167l-3.13118,-1.81918c-0.05511,-0.03304 -0.08822,-0.07718 -0.08822,-0.12125l0.01104,0.55476c0,0.04408 0.02207,0.08822 0.07719,0.12126l3.13118,1.80814c0.11023,0.06615 0.2866,0.07719 0.39689,0.01104l3.15319,-1.81918c0.05511,-0.03304 0.07718,-0.07719 0.07718,-0.12126l0,-0.54372c0,0.04408 -0.02207,0.07719 -0.07718,0.11022l-3.1532,1.81917c-0.11029,0.06615 -0.28667,0.06615 -0.39689,0z" fill="#474B59" id="svg_33"/>
   <path d="m47.95169,105.88984l3.13118,1.81911c0.11023,0.06615 0.28666,0.06615 0.39689,0.01103l3.16423,-1.83015c0.04414,-0.02207 0.07718,-0.06615 0.07718,-0.11029l-0.01104,-0.54372c0,0.0331 -0.022,0.07718 -0.07718,0.11029l-3.15319,1.81911c-0.11023,0.06615 -0.28666,0.06615 -0.39689,0l-3.13118,-1.81911c-0.05511,-0.03311 -0.08815,-0.07719 -0.08815,-0.12126l0.01097,0.5547c0,0.03311 0.02207,0.07718 0.07718,0.11029z" fill="#474B59" id="svg_34"/>
   <path d="m49.68265,103.01228c0.05511,-0.02207 0.08822,-0.06615 0.08822,-0.11029l-0.01104,-0.54372c0,0.03311 -0.02207,0.07719 -0.07719,0.1103l-3.15319,1.81911c-0.11023,0.06615 -0.28667,0.06615 -0.39689,0l-3.13118,-1.81911c-0.05511,-0.03311 -0.08822,-0.07719 -0.08822,-0.12133l0.01104,0.55476c0,0.03311 0.02207,0.07719 0.08822,0.11029l3.12015,1.81912c0.11023,0.06615 0.28667,0.06615 0.39689,0.01103l3.15319,-1.83016z" fill="#474B59" id="svg_35"/>
   <path d="m42.65961,108.94377l3.13118,1.81918c0.11023,0.06615 0.28667,0.07718 0.39689,0.01103l3.15319,-1.81918c0.05511,-0.03304 0.08822,-0.07718 0.08822,-0.12126l-0.01104,-0.54372c0,0.04408 -0.02207,0.07719 -0.07719,0.11023l-3.15319,1.81918c-0.11023,0.06615 -0.28667,0.06615 -0.39689,0l-3.13118,-1.81918c-0.05511,-0.03304 -0.08822,-0.07712 -0.08822,-0.12126l0.01104,0.55476c0.00001,0.04408 0.02208,0.07718 0.07719,0.11022z" fill="#474B59" id="svg_36"/>
   <path d="m44.73235,100.13465c0.05511,-0.022 0.07718,-0.06615 0.07718,-0.11022l0,-0.54372c0,0.03304 -0.02207,0.07719 -0.07718,0.11022l-3.15319,1.81918c-0.11029,0.06615 -0.28666,0.06615 -0.39689,0l-3.13118,-1.81918c-0.05511,-0.03304 -0.08822,-0.07718 -0.08822,-0.12126l0.01104,0.55476c0,0.03304 0.02208,0.07719 0.07719,0.11022l3.13118,1.81918c0.11023,0.06615 0.2866,0.06615 0.39689,0.01104l3.15318,-1.83022z" fill="#474B59" id="svg_37"/>
   <path d="m27.11412,111.64146c-0.05511,-0.03304 -0.07719,-0.07712 -0.07719,-0.12126l0,0.55476c0,0.04408 0.03304,0.07719 0.08822,0.11023l8.07038,4.69674c0.11029,0.06615 0.2977,0.06615 0.40799,0l3.15319,-1.81911c0.05511,-0.03311 0.07719,-0.06615 0.07719,-0.11029l0,-0.55476c0,0.04414 -0.02207,0.08822 -0.07719,0.11029l-3.15319,1.83015c-0.11029,0.06615 -0.2977,0.06615 -0.40799,0l-8.08141,-4.69675z" fill="#FA5168" id="svg_38"/>
   <path d="m22.16382,108.7639c-0.05518,-0.03304 -0.07718,-0.07718 -0.07718,-0.12126l0,0.55476c0,0.04408 0.02201,0.07719 0.07718,0.11022l3.13112,1.81918c0.11029,0.06615 0.2977,0.06615 0.40793,0l3.15319,-1.81918c0.05518,-0.03304 0.07718,-0.06615 0.07718,-0.11022l0,-0.55476c0,0.04408 -0.03304,0.08823 -0.07718,0.12126l-3.15319,1.81918c-0.12126,0.06615 -0.29763,0.06615 -0.40793,0l-3.13112,-1.81918z" fill="#6EBA6E" id="svg_39"/>
   <path d="m17.13634,105.76508l0,0.55476c0,0.04408 0.02201,0.07711 0.07712,0.11022l3.13118,1.81918c0.11023,0.06615 0.2977,0.06615 0.40793,0l3.15319,-1.81918c0.05518,-0.03311 0.07718,-0.06615 0.07718,-0.11022l0,-0.55476c0,0.04408 -0.03304,0.08816 -0.07718,0.12126l-3.15319,1.81918c-0.12126,0.06615 -0.2977,0.06615 -0.40793,0l-3.13118,-1.81918c-0.05512,-0.0331 -0.07712,-0.07719 -0.07712,-0.12126z" fill="#6EBA6E" id="svg_40"/>
   <path d="m39.78205,97.2571c0.05511,-0.02207 0.07719,-0.06615 0.07719,-0.11023l0,-0.54372c0,0.03304 -0.02207,0.07718 -0.07719,0.11022l-3.15319,1.81918c-0.11029,0.06615 -0.28667,0.06615 -0.39696,0l-3.13111,-1.81918c-0.05511,-0.03304 -0.08822,-0.07719 -0.08822,-0.12126l0,0.55476c0.01104,0.04408 0.03311,0.07719 0.08822,0.11023l3.13111,1.81918c0.11029,0.06615 0.28667,0.06615 0.39696,0.01103l3.15319,-1.83021z" fill="#EFAC41" id="svg_41"/>
   <path d="m39.0985,109.13125c0.05511,-0.03311 0.07719,-0.07719 0.07719,-0.1103l0,-0.55476c0,0.04414 -0.02207,0.08822 -0.07719,0.11029l-3.15319,1.81911c-0.11029,0.06622 -0.28667,0.06622 -0.39696,0l-3.13112,-1.81911c-0.05511,-0.0331 -0.08822,-0.07718 -0.08822,-0.12126l0,0.55476c0,0.04408 0.03311,0.08815 0.08822,0.12126l3.13112,1.81911c0.11029,0.05518 0.28666,0.06615 0.39696,0l3.15319,-1.8191z" fill="#474B59" id="svg_42"/>
   <path d="m36.28709,105.01881l3.15319,-1.81911c0.05511,-0.03311 0.07719,-0.07719 0.07719,-0.12126l0,-0.54372c0,0.04408 -0.02207,0.07712 -0.07719,0.11022l-3.15319,1.81918c-0.11029,0.06615 -0.28667,0.06615 -0.39696,0l-3.13112,-1.81918c-0.05511,-0.0331 -0.08822,-0.07719 -0.08822,-0.12126l0,0.55476c0,0.04408 0.03311,0.08815 0.08822,0.12126l3.13112,1.80814c0.11029,0.06615 0.28667,0.07712 0.39696,0.01097z" fill="#474B59" id="svg_43"/>
   <path d="m37.36754,111.99778l3.13118,1.83022c0.11023,0.05511 0.2866,0.06615 0.39689,0l3.15319,-1.81918c0.05511,-0.0331 0.07718,-0.07719 0.07718,-0.11022l0,-0.55476c0,0.04408 -0.02207,0.08816 -0.07718,0.11023l-3.15319,1.81918c-0.11029,0.06615 -0.28666,0.06615 -0.39689,0l-3.13118,-1.81918c-0.05511,-0.03304 -0.08822,-0.07719 -0.08822,-0.11023l0,0.54372c-0.00001,0.04406 0.0331,0.08814 0.08822,0.11022z" fill="#474B59" id="svg_44"/>
   <path d="m34.48998,99.76738l-3.15326,1.81911c-0.11023,0.06615 -0.2866,0.06615 -0.39689,0l-3.13111,-1.81911c-0.05518,-0.03311 -0.08822,-0.07719 -0.08822,-0.12133l0,0.55476c0,0.04414 0.03304,0.08823 0.08822,0.12133l3.13111,1.80808c0.11029,0.06615 0.28667,0.07719 0.39689,0.01103l3.15326,-1.81911c0.05511,-0.0331 0.07718,-0.07719 0.07718,-0.12133l0,-0.54373c0,0.04415 -0.02207,0.07718 -0.07718,0.1103z" fill="#474B59" id="svg_45"/>
   <path d="m29.1979,102.82131l-3.15326,1.81918c-0.11022,0.06615 -0.28666,0.06615 -0.40792,0l-3.12015,-1.81918c-0.05511,-0.03304 -0.08815,-0.07712 -0.08815,-0.11023l0,0.54372c0,0.04408 0.03304,0.08822 0.08815,0.12126l3.13118,1.81918c0.11023,0.06615 0.28667,0.06615 0.39689,0l3.15326,-1.81918c0.05511,-0.03304 0.07711,-0.07719 0.07711,-0.11022l0,-0.55476c0,0.04408 -0.022,0.08822 -0.07711,0.11023z" fill="#474B59" id="svg_46"/>
   <path d="m30.99494,108.07281l3.15326,-1.81912c0.05511,-0.0331 0.07718,-0.07718 0.07718,-0.11029l0,-0.55476c0,0.04414 -0.02207,0.08822 -0.07718,0.11029l-3.15326,1.81911c-0.11023,0.06615 -0.2866,0.06615 -0.39689,0l-3.13111,-1.81911c-0.05518,-0.03311 -0.08822,-0.07719 -0.08822,-0.11029l0,0.54372c0,0.04414 0.03304,0.08822 0.08822,0.12132l3.13111,1.81912c0.1103,0.05512 0.28667,0.06616 0.39689,0.00001z" fill="#474B59" id="svg_47"/>
   <path d="m27.11923,111.40419c-0.11264,0.06503 -0.11325,0.17068 -0.00135,0.23572l8.07743,4.69409c0.1119,0.06503 0.29434,0.06503 0.40697,0.00001l3.15355,-1.82071c0.10559,-0.06097 0.10619,-0.16663 -0.00571,-0.23167l-8.07743,-4.69409c-0.1119,-0.06503 -0.29431,-0.06502 -0.39991,-0.00405l-3.15355,1.8207z" fill="#F9607F" id="svg_48"/>
   <path d="m73.09229,11.2997c-0.35768,-0.23013 -0.86862,-0.20456 -1.40498,0.12754l-49.8394,28.76432c-1.09844,0.63864 -1.99263,2.17131 -1.99263,3.44859l0.10228,36.47913l-1.37956,-0.79206c-0.35752,-0.20425 -0.5875,-0.58749 -0.5875,-1.02157l-0.10213,-35.81493c0,-1.25171 0.89403,-2.78469 1.99247,-3.42333l49.83941,-28.7899c0.56193,-0.30622 1.04729,-0.33179 1.40497,-0.12754l1.96707,1.14975z" fill="#BAC1CE" id="svg_51"/>
   <path d="m71.68164,11.42493c1.1008,-0.63555 1.9958,-0.12551 1.99939,1.13936l0.10345,36.48953l-53.82321,31.07486l-0.10345,-36.48954c-0.00359,-1.26487 0.88561,-2.80502 1.98637,-3.44054l49.83745,-28.77367z" fill="#5B5E71" id="svg_52"/>
   <path d="m22.30944,43.63251c-0.0016,-0.391 0.41813,-1.11354 0.76045,-1.31104l48.16537,-27.80834l0.09416,33.12791l-48.92901,28.24881l-0.09097,-32.25734z" fill="#FFFFFF" id="svg_53"/>
   <path d="m22.30944,43.63251c-0.0016,-0.391 0.41813,-1.11354 0.76045,-1.31104l48.16537,-27.80834l0.00319,3.77045l-48.92901,28.24881l0,-2.89988z" fill="#878787" id="svg_54"/>
   <path d="m106.17448,70.27881c0,0.41547 -0.28001,0.84003 -0.84003,1.16518l-49.83269,28.76869c-1.10195,0.63229 -2.87235,0.63229 -3.9743,0l-30.93653,-17.80314c-0.37037,-0.19875 -0.61421,-0.59618 -0.61421,-1.02972l-0.00904,-1.2465c0,0 86.18871,-11.16424 86.18871,-11.57976l0.01809,1.72525z" fill="#5B5E71" id="svg_55"/>
   <path d="m105.33077,69.6965l-49.8394,28.78989c-1.09844,0.61307 -2.88666,0.61307 -3.9851,0l-31.54871,-18.36711l53.82452,-31.06348l31.5487,18.34185c1.09844,0.63864 1.09844,1.66021 -0.00001,2.29885z" fill="#E4E8F4" id="svg_56"/>
   <polygon fill="#BAC1CE" points="27.409738540649414,85.08527851104736 27.405019760131836,85.78390979766846 29.983850479125977,87.27280139923096 29.98857879638672,86.57418537139893 " id="svg_57"/>
   <path d="m33.74417,85.11386c-0.12425,0.07174 -0.1249,0.18651 -0.00969,0.25346l2.3864,1.38683c0.13168,0.07652 0.32982,0.07652 0.45407,0.00478l5.12707,-2.96011c0.11597,-0.06696 0.1249,-0.18651 -0.00678,-0.26303l-2.3864,-1.38683c-0.11522,-0.06696 -0.32164,-0.06217 -0.43761,0.00478l-5.12706,2.96012z" fill="#BAC1CE" id="svg_59"/>
   <path d="m43.90405,87.14154c-0.13251,0.07651 -0.13316,0.19128 -0.01794,0.25823l2.89661,1.68333c0.13168,0.07652 0.3298,0.07651 0.4623,0l2.60083,-1.50159c0.12423,-0.07172 0.1249,-0.18648 -0.00677,-0.263l-2.89661,-1.68333c-0.11521,-0.06696 -0.31336,-0.06696 -0.43758,0.00477l-2.60084,1.50159z" fill="#BAC1CE" id="svg_61"/>
   <path d="m82.16815,66.98498c-0.12423,0.07172 -0.12487,0.18649 -0.00966,0.25345l1.22613,0.71255c0.13168,0.07652 0.32979,0.07651 0.45402,0.00478l2.60083,-1.50159c0.13251,-0.07651 0.13318,-0.19126 0.0015,-0.26778l-1.22612,-0.71255c-0.11521,-0.06696 -0.31336,-0.06696 -0.44587,0.00955l-2.60083,1.50159z" fill="#BAC1CE" id="svg_63"/>
   <path d="m46.74824,77.60595c-0.12425,0.07173 -0.1249,0.18651 -0.00969,0.25346l2.3864,1.38683c0.13168,0.07652 0.32982,0.07652 0.45407,0.00478l2.60909,-1.50636c0.11597,-0.06695 0.1249,-0.18651 -0.00678,-0.26303l-2.3864,-1.38683c-0.11521,-0.06695 -0.32164,-0.06217 -0.43761,0.00478l-2.60908,1.50637z" fill="#BAC1CE" id="svg_65"/>
   <path d="m51.87788,78.59111c-0.13251,0.0765 -0.13316,0.19128 -0.01797,0.25822l2.38643,1.38684c0.13165,0.0765 0.3298,0.07651 0.4623,0l2.60083,-1.50159c0.12422,-0.07172 0.12487,-0.18649 -0.00678,-0.26299l-2.38643,-1.38684c-0.11518,-0.06694 -0.31333,-0.06694 -0.43755,0.00478l-2.60083,1.50158z" fill="#BAC1CE" id="svg_67"/>
   <path d="m55.35668,76.58263c-0.13251,0.07651 -0.13315,0.19128 -0.01797,0.25822l2.38643,1.38684c0.13165,0.07651 0.32979,0.07651 0.4623,0l2.60083,-1.50159c0.12422,-0.07172 0.12487,-0.1865 -0.00678,-0.263l-2.38643,-1.38684c-0.11518,-0.06694 -0.31332,-0.06694 -0.43755,0.00478l-2.60083,1.50159z" fill="#BAC1CE" id="svg_69"/>
   <path d="m64.12565,67.5731c-0.13254,0.07652 -0.13319,0.19129 -0.01797,0.25825l2.3864,1.38683c0.13168,0.07652 0.32982,0.07652 0.46236,0l2.60081,-1.50157c0.12425,-0.07174 0.12489,-0.18652 -0.00678,-0.26303l-2.3864,-1.38683c-0.11521,-0.06696 -0.31336,-0.06696 -0.43761,0.00478l-2.60081,1.50157z" fill="#BAC1CE" id="svg_71"/>
   <path d="m42.62507,69.42369c-0.12425,0.07173 -0.1249,0.18651 -0.00972,0.25345l1.28375,0.74603c0.13165,0.07651 0.32979,0.07651 0.45404,0.00478l2.60909,-1.50636c0.11597,-0.06696 0.12487,-0.18649 -0.00678,-0.263l-1.28374,-0.74603c-0.11518,-0.06693 -0.32159,-0.06217 -0.43755,0.00478l-2.60909,1.50635z" fill="#BAC1CE" id="svg_73"/>
   <path d="m46.22809,67.34349c-0.12422,0.07172 -0.13315,0.19128 -0.01797,0.25822l1.28374,0.74603c0.13165,0.0765 0.33808,0.07172 0.4623,0l2.60912,-1.50637c0.11594,-0.06694 0.11658,-0.18172 -0.01506,-0.25822l-1.28375,-0.74603c-0.11518,-0.06694 -0.31333,-0.06694 -0.42927,0l-2.60911,1.50637z" fill="#BAC1CE" id="svg_75"/>
   <path d="m49.83114,65.26326c-0.13254,0.07652 -0.13319,0.1913 -0.018,0.25823l1.28375,0.74603c0.13165,0.07651 0.32979,0.07651 0.46233,-0.00002l2.6008,-1.50157c0.12425,-0.07174 0.1249,-0.18651 -0.00675,-0.26302l-1.28375,-0.74603c-0.11518,-0.06694 -0.31333,-0.06694 -0.43758,0.0048l-2.6008,1.50158z" fill="#BAC1CE" id="svg_77"/>
   <path d="m51.23248,67.11395c-0.12425,0.07174 -0.12495,0.19608 -0.00974,0.26303l2.3864,1.38683c0.13168,0.07652 0.33811,0.07174 0.46236,0l2.60909,-1.50636c0.11597,-0.06696 0.11658,-0.18171 -0.01509,-0.25823l-2.3864,-1.38683c-0.11521,-0.06696 -0.32156,-0.07175 -0.43753,-0.00481l-2.60909,1.50637z" fill="#BAC1CE" id="svg_79"/>
   <path d="m54.70299,65.11025c-0.12425,0.07174 -0.11666,0.19129 -0.00145,0.25825l2.3864,1.38683c0.13168,0.07652 0.32982,0.07652 0.45407,0.00478l2.60909,-1.50636c0.11597,-0.06696 0.1249,-0.18652 -0.00677,-0.26303l-2.3864,-1.38683c-0.11521,-0.06695 -0.32988,-0.06695 -0.44584,0l-2.6091,1.50636z" fill="#BAC1CE" id="svg_81"/>
   <path d="m35.42726,73.57935c-0.12425,0.07173 -0.13315,0.19128 -0.01797,0.25822l1.28374,0.74603c0.13165,0.0765 0.33805,0.07173 0.4623,0l2.60909,-1.50636c0.11597,-0.06695 0.11661,-0.18172 -0.01504,-0.25823l-1.28373,-0.74603c-0.11518,-0.06694 -0.31333,-0.06694 -0.4293,0.00001l-2.60909,1.50636z" fill="#BAC1CE" id="svg_83"/>
   <path d="m39.03031,71.49913c-0.13253,0.07652 -0.13318,0.19129 -0.018,0.25823l1.28375,0.74603c0.13165,0.07651 0.32979,0.07651 0.46233,-0.00002l2.6008,-1.50157c0.12425,-0.07174 0.1249,-0.18651 -0.00675,-0.26302l-1.28375,-0.74603c-0.11518,-0.06694 -0.31333,-0.06694 -0.43758,0.0048l-2.6008,1.50158z" fill="#BAC1CE" id="svg_85"/>
   <path d="m72.1798,55.02001c-0.12425,0.07174 -0.11667,0.19129 -0.00146,0.25825l2.38641,1.38683c0.13168,0.07652 0.32982,0.07652 0.45407,0.00478l4.14971,-2.39584c0.11597,-0.06695 0.12487,-0.18649 -0.00681,-0.26302l-2.38641,-1.38682c-0.11521,-0.06696 -0.32985,-0.06697 -0.44581,-0.00002l-4.1497,2.39584z" fill="#BAC1CE" id="svg_88"/>
   <path d="m77.1355,56.1056c-0.13251,0.0765 -0.12495,0.19604 -0.00974,0.263l2.38643,1.38684c0.13165,0.07651 0.3298,0.07651 0.4623,0l2.60083,-1.50159c0.11597,-0.06696 0.12487,-0.1865 -0.00677,-0.263l-2.38643,-1.38684c-0.11521,-0.06696 -0.32982,-0.06696 -0.44579,0l-2.60083,1.50159z" fill="#BAC1CE" id="svg_90"/>
   <path d="m64.22672,56.95197c-0.12425,0.07174 -0.13316,0.19128 -0.01797,0.25822l1.28375,0.74603c0.13165,0.0765 0.33805,0.07174 0.4623,0l2.60909,-1.50636c0.11597,-0.06695 0.11662,-0.18172 -0.01504,-0.25823l-1.28374,-0.74603c-0.11518,-0.06694 -0.31333,-0.06694 -0.4293,0.00001l-2.60909,1.50636z" fill="#BAC1CE" id="svg_92"/>
   <path d="m68.59332,57.09066c-0.12425,0.07174 -0.11666,0.1913 -0.00145,0.25825l2.3864,1.38683c0.13168,0.07652 0.32982,0.07652 0.45407,0.00479l2.60909,-1.50636c0.11597,-0.06696 0.12489,-0.18651 -0.00678,-0.26303l-2.3864,-1.38683c-0.11521,-0.06696 -0.32987,-0.06696 -0.44584,0l-2.60909,1.50635z" fill="#BAC1CE" id="svg_94"/>
   <path d="m73.66499,58.10929c-0.13251,0.07651 -0.12495,0.19604 -0.00974,0.263l2.38643,1.38684c0.13165,0.07651 0.3298,0.07651 0.4623,0l2.60084,-1.50159c0.12422,-0.07172 0.12486,-0.1865 -0.00678,-0.263l-2.38643,-1.38684c-0.11521,-0.06696 -0.32156,-0.07172 -0.44579,0l-2.60083,1.50159z" fill="#BAC1CE" id="svg_96"/>
   <path d="m60.63196,59.0274c-0.13251,0.0765 -0.13316,0.19128 -0.01797,0.25822l1.28374,0.74603c0.13165,0.0765 0.3298,0.0765 0.4623,0l2.60083,-1.50159c0.12423,-0.07172 0.12487,-0.18649 -0.00677,-0.263l-1.28374,-0.74603c-0.11519,-0.06694 -0.31333,-0.06694 -0.43755,0.00478l-2.60084,1.50159z" fill="#BAC1CE" id="svg_98"/>
   <path d="m67.82553,54.87418c-0.13251,0.0765 -0.13316,0.19128 -0.01797,0.25821l1.28374,0.74603c0.13165,0.07651 0.3298,0.07651 0.4623,0l2.60083,-1.50159c0.12423,-0.07172 0.12487,-0.1865 -0.00677,-0.263l-1.28374,-0.74603c-0.11519,-0.06694 -0.31333,-0.06694 -0.43755,0.00478l-2.60084,1.5016z" fill="#BAC1CE" id="svg_100"/>
   <path d="m71.42231,52.79756c-0.13251,0.0765 -0.13316,0.19128 -0.01797,0.25822l1.28375,0.74603c0.13165,0.07651 0.32979,0.07651 0.4623,0l2.60084,-1.50159c0.12422,-0.07172 0.12487,-0.18649 -0.00678,-0.263l-1.28374,-0.74603c-0.11518,-0.06694 -0.31333,-0.06694 -0.43755,0.00478l-2.60085,1.50159z" fill="#BAC1CE" id="svg_102"/>
   <path d="m65.12281,59.09436c-0.12425,0.07174 -0.12495,0.19608 -0.00974,0.26303l2.3864,1.38683c0.13168,0.07652 0.33811,0.07174 0.46236,0l2.60909,-1.50636c0.11597,-0.06696 0.11662,-0.18173 -0.01506,-0.25825l-2.38641,-1.38683c-0.11521,-0.06696 -0.32159,-0.07174 -0.43755,-0.00479l-2.60909,1.50637z" fill="#BAC1CE" id="svg_104"/>
   <path d="m78.02426,59.54873c-0.12423,0.07172 -0.12487,0.18649 -0.00966,0.25345l2.3864,1.38683c0.13168,0.07652 0.32982,0.07652 0.45405,0.0048l5.12709,-2.96013c0.11597,-0.06695 0.12487,-0.18649 -0.00681,-0.26302l-2.3864,-1.38682c-0.11521,-0.06696 -0.32162,-0.06219 -0.43758,0.00476l-5.12709,2.96013z" fill="#BAC1CE" id="svg_106"/>
   <path d="m70.19447,60.11299c-0.13251,0.0765 -0.12495,0.19604 -0.00974,0.263l2.38643,1.38684c0.13165,0.0765 0.32979,0.07651 0.4623,0l2.60083,-1.50159c0.12422,-0.07172 0.12487,-0.18649 -0.00678,-0.263l-2.38643,-1.38684c-0.11521,-0.06696 -0.32156,-0.07172 -0.44579,0l-2.60082,1.50159z" fill="#BAC1CE" id="svg_108"/>
   <path d="m57.02894,61.10761c-0.13254,0.07652 -0.13318,0.1913 -0.018,0.25823l1.28375,0.74603c0.13165,0.0765 0.32979,0.07651 0.46233,-0.00002l2.60081,-1.50157c0.12425,-0.07174 0.12489,-0.18651 -0.00675,-0.26302l-1.28374,-0.74603c-0.11519,-0.06694 -0.31333,-0.06694 -0.43758,0.0048l-2.60082,1.50158z" fill="#BAC1CE" id="svg_110"/>
   <path d="m61.6523,61.09806c-0.13254,0.07652 -0.12495,0.19608 -0.00974,0.26303l2.38641,1.38683c0.13168,0.07652 0.32982,0.07652 0.46236,0l2.60081,-1.50157c0.12424,-0.07174 0.12489,-0.18651 -0.00678,-0.26303l-2.3864,-1.38682c-0.11521,-0.06696 -0.32159,-0.07174 -0.44585,0l-2.60081,1.50156z" fill="#BAC1CE" id="svg_112"/>
   <path d="m74.54547,61.55722c-0.12422,0.07172 -0.12487,0.18649 -0.00966,0.25345l2.38641,1.38683c0.13168,0.07652 0.32982,0.07652 0.45404,0.0048l2.60912,-1.50638c0.11594,-0.06694 0.11658,-0.18171 -0.01509,-0.25823l-2.3864,-1.38683c-0.11521,-0.06696 -0.31336,-0.06696 -0.4293,-0.00002l-2.60912,1.50638z" fill="#BAC1CE" id="svg_114"/>
   <path d="m66.72397,62.11669c-0.13251,0.0765 -0.12495,0.19604 -0.00974,0.263l2.38643,1.38684c0.13165,0.0765 0.3298,0.07651 0.4623,0l2.60909,-1.50636c0.11596,-0.06696 0.11661,-0.18173 -0.01504,-0.25823l-2.38643,-1.38684c-0.11521,-0.06696 -0.32156,-0.07172 -0.43753,-0.00477l-2.60908,1.50636z" fill="#BAC1CE" id="svg_116"/>
   <path d="m89.01809,63.03017c-0.11597,0.06695 -0.11662,0.18172 -0.0014,0.24868l1.22613,0.71255c0.13168,0.07652 0.3298,0.07651 0.44576,0.00955l2.60909,-1.50636c0.12425,-0.07174 0.13319,-0.19126 0.00151,-0.26778l-1.22613,-0.71255c-0.11521,-0.06696 -0.32162,-0.06219 -0.44587,0.00955l-2.60909,1.50636z" fill="#BAC1CE" id="svg_118"/>
   <path d="m79.69998,62.52801c-0.13254,0.07652 -0.13318,0.19129 -0.018,0.25823l2.38643,1.38684c0.13165,0.07651 0.3298,0.07651 0.46233,-0.00002l6.85819,-3.95958c0.11597,-0.06695 0.12487,-0.18649 -0.00677,-0.263l-2.38643,-1.38684c-0.11519,-0.06694 -0.32159,-0.06217 -0.43755,0.00478l-6.8582,3.95959z" fill="#BAC1CE" id="svg_120"/>
   <path d="m58.18179,63.10176c-0.13254,0.07652 -0.12495,0.19608 -0.00974,0.26303l2.3864,1.38683c0.13168,0.07652 0.32982,0.07652 0.46236,0l2.60081,-1.50158c0.12425,-0.07174 0.12489,-0.18651 -0.00678,-0.26303l-2.3864,-1.38682c-0.11521,-0.06696 -0.32159,-0.07174 -0.44584,0l-2.60081,1.50157z" fill="#BAC1CE" id="svg_122"/>
   <path d="m71.07495,63.56092c-0.13251,0.0765 -0.13316,0.19128 -0.01794,0.25823l2.3864,1.38683c0.13168,0.07652 0.32982,0.07652 0.46233,0.00002l2.60084,-1.50159c0.12422,-0.07172 0.12487,-0.18649 -0.00681,-0.26302l-2.38641,-1.38682c-0.11521,-0.06696 -0.31335,-0.06696 -0.43758,0.00476l-2.60083,1.50159z" fill="#BAC1CE" id="svg_124"/>
   <path d="m63.25346,64.12039c-0.12425,0.07174 -0.12498,0.19606 -0.00977,0.26302l2.38643,1.38684c0.13165,0.07651 0.33807,0.07172 0.46233,-0.00002l2.60909,-1.50636c0.11597,-0.06696 0.11661,-0.18172 -0.01504,-0.25823l-2.38643,-1.38684c-0.11521,-0.06696 -0.32156,-0.07172 -0.43753,-0.00477l-2.60908,1.50636z" fill="#BAC1CE" id="svg_126"/>
   <path d="m84.00131,63.99137c-0.12422,0.07172 -0.12487,0.18649 -0.00965,0.25345l2.89661,1.68333c0.13168,0.07652 0.3298,0.07651 0.45402,0.00478l2.60084,-1.50159c0.13251,-0.07651 0.13318,-0.19126 0.0015,-0.26778l-2.89661,-1.68333c-0.11521,-0.06696 -0.31335,-0.06696 -0.44586,0.00955l-2.60085,1.50159z" fill="#BAC1CE" id="svg_128"/>
   <path d="m76.22119,64.53649c-0.12425,0.07174 -0.1249,0.18651 -0.00971,0.25345l2.38643,1.38684c0.13165,0.07651 0.32979,0.07651 0.45404,0.00477l2.60909,-1.50636c0.11597,-0.06696 0.11661,-0.18172 -0.01504,-0.25823l-2.38643,-1.38684c-0.11518,-0.06694 -0.31333,-0.06694 -0.4293,0.00002l-2.60908,1.50635z" fill="#BAC1CE" id="svg_130"/>
   <path d="m67.59616,65.5694c-0.12425,0.07174 -0.1249,0.18651 -0.00969,0.25346l2.38641,1.38683c0.13168,0.07652 0.32982,0.07652 0.45407,0.00478l2.60909,-1.50636c0.11597,-0.06696 0.1249,-0.18652 -0.00677,-0.26303l-2.3864,-1.38683c-0.11522,-0.06696 -0.32165,-0.06217 -0.43761,0.00478l-2.6091,1.50637z" fill="#BAC1CE" id="svg_132"/>
   <path d="m59.78295,66.12409c-0.12425,0.07174 -0.11669,0.19128 -0.00148,0.25823l2.38643,1.38684c0.13165,0.07651 0.3298,0.07651 0.45405,0.00477l2.60909,-1.50636c0.11597,-0.06696 0.1249,-0.18652 -0.00675,-0.26302l-2.38643,-1.38684c-0.11521,-0.06696 -0.32984,-0.06694 -0.44581,0.00002l-2.6091,1.50636z" fill="#BAC1CE" id="svg_134"/>
   <path d="m72.7424,66.54498c-0.12425,0.07174 -0.1249,0.18651 -0.00971,0.25345l2.38643,1.38684c0.13165,0.07651 0.3298,0.07651 0.45405,0.00477l2.60909,-1.50636c0.11597,-0.06696 0.1249,-0.18651 -0.00675,-0.26302l-2.38643,-1.38684c-0.11518,-0.06694 -0.32161,-0.06216 -0.43758,0.0048l-2.6091,1.50636z" fill="#BAC1CE" id="svg_136"/>
   <path d="m56.32072,68.12301c-0.13254,0.07652 -0.12498,0.19606 -0.00977,0.26302l2.38643,1.38684c0.13165,0.07651 0.3298,0.07651 0.46233,-0.00002l2.60081,-1.50157c0.11596,-0.06696 0.12489,-0.18652 -0.00675,-0.26302l-2.38643,-1.38684c-0.11521,-0.06696 -0.32985,-0.06694 -0.44582,0.00002l-2.6008,1.50157z" fill="#BAC1CE" id="svg_138"/>
   <path d="m69.2636,68.55346c-0.12425,0.07174 -0.12489,0.18651 -0.00971,0.25345l2.38643,1.38684c0.13165,0.07651 0.3298,0.07651 0.45405,0.00477l2.60909,-1.50636c0.11597,-0.06696 0.1249,-0.18651 -0.00674,-0.26302l-2.38643,-1.38684c-0.11519,-0.06694 -0.32162,-0.06216 -0.43758,0.0048l-2.60911,1.50636z" fill="#BAC1CE" id="svg_140"/>
   <path d="m47.76195,69.11766c-0.13251,0.0765 -0.12492,0.19606 -0.00971,0.26302l2.3864,1.38683c0.13168,0.07652 0.32982,0.07652 0.46233,0.00002l2.60083,-1.50159c0.12422,-0.07172 0.12487,-0.1865 -0.00681,-0.26302l-2.3864,-1.38683c-0.11521,-0.06696 -0.32159,-0.07174 -0.44581,-0.00002l-2.60083,1.50159z" fill="#BAC1CE" id="svg_142"/>
   <path d="m60.64685,69.58158c-0.12425,0.07173 -0.12489,0.18651 -0.00968,0.25346l2.3864,1.38683c0.13168,0.07652 0.32983,0.07652 0.45407,0.00478l2.60909,-1.50636c0.11597,-0.06696 0.1249,-0.18652 -0.00677,-0.26303l-2.38641,-1.38683c-0.11521,-0.06696 -0.32164,-0.06217 -0.43761,0.00478l-2.60909,1.50637z" fill="#BAC1CE" id="svg_144"/>
   <path d="m52.85021,70.12671c-0.13254,0.07652 -0.12498,0.19606 -0.00977,0.26302l2.38643,1.38684c0.13165,0.07651 0.3298,0.07651 0.46233,-0.00002l2.60081,-1.50157c0.12425,-0.07174 0.12489,-0.18652 -0.00675,-0.26302l-2.38643,-1.38684c-0.11521,-0.06696 -0.32156,-0.07172 -0.44581,0.00002l-2.60081,1.50157z" fill="#BAC1CE" id="svg_146"/>
   <path d="m72.59612,70.52851c-0.11597,0.06696 -0.11661,0.18173 -0.00143,0.24866l2.89661,1.68333c0.12344,0.07174 0.32982,0.07652 0.44579,0.00957l3.71073,-2.1424c0.13251,-0.0765 0.12492,-0.19606 0.00148,-0.2678l-2.89661,-1.68333c-0.11519,-0.06693 -0.31333,-0.06694 -0.44584,0.00957l-3.71073,2.1424z" fill="#BAC1CE" id="svg_148"/>
   <path d="m44.29144,71.12136c-0.13251,0.0765 -0.12492,0.19606 -0.00971,0.26302l2.3864,1.38683c0.13168,0.07652 0.32982,0.07652 0.46233,0.00002l2.60083,-1.50159c0.12423,-0.07172 0.12487,-0.1865 -0.00681,-0.26302l-2.3864,-1.38683c-0.11522,-0.06696 -0.32159,-0.07174 -0.44582,-0.00002l-2.60082,1.50159z" fill="#BAC1CE" id="svg_150"/>
   <path d="m57.17634,71.58528c-0.13254,0.07652 -0.13318,0.19129 -0.01797,0.25825l2.38641,1.38683c0.13168,0.07652 0.32982,0.07652 0.46236,0l2.6008,-1.50157c0.12425,-0.07174 0.1249,-0.18652 -0.00677,-0.26304l-2.3864,-1.38682c-0.11522,-0.06696 -0.31336,-0.06696 -0.43761,0.00478l-2.60082,1.50157z" fill="#BAC1CE" id="svg_152"/>
   <path d="m49.37967,72.13043c-0.13251,0.07651 -0.12495,0.19604 -0.00974,0.263l2.38643,1.38684c0.13165,0.07651 0.32979,0.07651 0.4623,0l2.60083,-1.50159c0.12423,-0.07172 0.12487,-0.1865 -0.00678,-0.263l-2.38643,-1.38684c-0.11521,-0.06696 -0.32156,-0.07172 -0.44578,-0.00001l-2.60083,1.5016z" fill="#BAC1CE" id="svg_154"/>
   <path d="m62.31426,72.56566c-0.13251,0.07651 -0.13315,0.19128 -0.01797,0.25822l2.38643,1.38684c0.13165,0.07651 0.3298,0.07651 0.4623,0l2.60083,-1.50159c0.12422,-0.07172 0.12487,-0.18649 -0.00677,-0.263l-2.38643,-1.38684c-0.11519,-0.06694 -0.31333,-0.06694 -0.43755,0.00478l-2.60084,1.50159z" fill="#BAC1CE" id="svg_156"/>
   <path d="m40.81264,73.12985c-0.12422,0.07172 -0.11664,0.19128 -0.00142,0.25823l2.3864,1.38683c0.13168,0.07652 0.32982,0.07652 0.45405,0.0048l2.60909,-1.50636c0.11597,-0.06696 0.11661,-0.18173 -0.01506,-0.25825l-2.3864,-1.38683c-0.11521,-0.06696 -0.32159,-0.07174 -0.43755,-0.00479l-2.60911,1.50637z" fill="#BAC1CE" id="svg_158"/>
   <path d="m53.69755,73.59377c-0.12425,0.07173 -0.1249,0.18651 -0.00969,0.25346l2.3864,1.38683c0.13168,0.07652 0.32982,0.07652 0.45407,0.00478l2.60909,-1.50636c0.11597,-0.06696 0.12489,-0.18652 -0.00678,-0.26304l-2.3864,-1.38682c-0.11521,-0.06696 -0.32164,-0.06217 -0.43761,0.00478l-2.60908,1.50637z" fill="#BAC1CE" id="svg_160"/>
   <path d="m45.90917,74.13413c-0.12423,0.07172 -0.12495,0.19604 -0.00974,0.263l2.38643,1.38684c0.13165,0.0765 0.33808,0.07172 0.4623,0l2.60083,-1.50159c0.12422,-0.07172 0.12487,-0.1865 -0.00678,-0.263l-2.38643,-1.38684c-0.11521,-0.06696 -0.32156,-0.07172 -0.44579,-0.00001l-2.60082,1.5016z" fill="#BAC1CE" id="svg_162"/>
   <path d="m58.83547,74.57415c-0.13251,0.07651 -0.13316,0.19128 -0.01797,0.25822l2.38643,1.38684c0.13165,0.07651 0.3298,0.07651 0.4623,0l2.60084,-1.50159c0.12422,-0.07172 0.12486,-0.1865 -0.00678,-0.263l-2.38643,-1.38684c-0.11518,-0.06694 -0.31333,-0.06694 -0.43755,0.00478l-2.60084,1.50159z" fill="#BAC1CE" id="svg_164"/>
   <path d="m65.79306,70.55718c-0.13251,0.07651 -0.13316,0.19128 -0.01797,0.25822l2.38643,1.38684c0.13165,0.07651 0.32979,0.07651 0.4623,0l2.60083,-1.50159c0.12422,-0.07172 0.12487,-0.18649 -0.00678,-0.263l-2.38643,-1.38684c-0.11518,-0.06694 -0.31332,-0.06694 -0.43755,0.00478l-2.60083,1.50159z" fill="#BAC1CE" id="svg_166"/>
   <path d="m37.34213,75.13355c-0.12425,0.07173 -0.12492,0.19606 -0.00971,0.26302l2.3864,1.38683c0.13168,0.07652 0.33808,0.07175 0.46233,0.00002l2.60909,-1.50636c0.11597,-0.06696 0.11662,-0.18173 -0.01506,-0.25826l-2.3864,-1.38682c-0.11521,-0.06696 -0.32159,-0.07174 -0.43756,-0.00479l-2.60909,1.50636z" fill="#BAC1CE" id="svg_168"/>
   <path d="m50.22704,75.59747c-0.13254,0.07652 -0.13318,0.19129 -0.01797,0.25825l2.3864,1.38683c0.13168,0.07652 0.32982,0.07652 0.46236,0l2.6008,-1.50158c0.12425,-0.07173 0.1249,-0.18651 -0.00678,-0.26303l-2.3864,-1.38683c-0.11522,-0.06695 -0.31336,-0.06695 -0.43761,0.00478l-2.6008,1.50158z" fill="#BAC1CE" id="svg_170"/>
   <path d="m38.96815,78.14153c-0.12425,0.07174 -0.1167,0.19128 -0.00148,0.25823l2.38643,1.38684c0.13165,0.07651 0.32979,0.07651 0.45404,0.00477l2.60909,-1.50636c0.11597,-0.06696 0.1249,-0.18652 -0.00675,-0.26302l-2.38643,-1.38684c-0.11521,-0.06696 -0.32985,-0.06694 -0.44581,0.00001l-2.60909,1.50637z" fill="#BAC1CE" id="svg_172"/>
   <path d="m30.40111,79.14095c-0.13253,0.07652 -0.12495,0.19608 -0.00974,0.26303l2.3864,1.38683c0.13168,0.07652 0.32982,0.07652 0.46236,0l2.6008,-1.50158c0.11597,-0.06695 0.1249,-0.18651 -0.00678,-0.26303l-2.3864,-1.38683c-0.11521,-0.06695 -0.32987,-0.06695 -0.44584,0l-2.6008,1.50158z" fill="#BAC1CE" id="svg_174"/>
   <path d="m43.27773,79.60965c-0.13254,0.07652 -0.13318,0.19129 -0.01797,0.25825l2.3864,1.38682c0.13168,0.07652 0.32982,0.07652 0.46236,0.00001l2.60081,-1.50158c0.12425,-0.07173 0.1249,-0.18651 -0.00678,-0.26303l-2.3864,-1.38683c-0.11521,-0.06695 -0.31336,-0.06696 -0.43761,0.00478l-2.60081,1.50158z" fill="#BAC1CE" id="svg_176"/>
   <path d="m35.50592,80.14044c-0.13254,0.07652 -0.12498,0.19606 -0.00977,0.26302l2.38643,1.38684c0.13165,0.0765 0.3298,0.07651 0.46233,-0.00002l2.60081,-1.50157c0.11596,-0.06696 0.1249,-0.18652 -0.00675,-0.26302l-2.38643,-1.38684c-0.11521,-0.06696 -0.32985,-0.06694 -0.44581,0.00001l-2.60081,1.50158z" fill="#BAC1CE" id="svg_178"/>
   <path d="m48.39909,80.5996c-0.13251,0.0765 -0.13316,0.19128 -0.01797,0.25822l2.38643,1.38684c0.13165,0.0765 0.32979,0.07651 0.4623,0l2.60083,-1.50159c0.12423,-0.07172 0.12487,-0.18649 -0.00678,-0.26299l-2.38643,-1.38684c-0.11518,-0.06694 -0.31333,-0.06694 -0.43755,0.00478l-2.60083,1.50158z" fill="#BAC1CE" id="svg_180"/>
   <path d="m55.39236,80.50875c-0.12422,0.07172 -0.13316,0.19128 -0.01794,0.25823l2.89661,1.68333c0.13168,0.07652 0.33808,0.07172 0.4623,0.00001l16.40833,-9.47336c0.12425,-0.07174 0.12489,-0.18648 -0.00678,-0.263l-2.89661,-1.68333c-0.11521,-0.06696 -0.31333,-0.06697 -0.43758,0.00477l-16.40833,9.47335z" fill="#BAC1CE" id="svg_182"/>
   <path d="m26.92232,81.14943c-0.12425,0.07173 -0.11666,0.19129 -0.00145,0.25825l2.3864,1.38683c0.13168,0.07652 0.32982,0.07652 0.45407,0.00478l2.60909,-1.50636c0.11597,-0.06695 0.11662,-0.18172 -0.01506,-0.25825l-2.3864,-1.38683c-0.11521,-0.06695 -0.32159,-0.07174 -0.43756,-0.00478l-2.60909,1.50636z" fill="#BAC1CE" id="svg_184"/>
   <path d="m39.8072,81.61337c-0.13251,0.0765 -0.13315,0.19128 -0.01794,0.25823l2.3864,1.38682c0.13168,0.07652 0.32982,0.07652 0.46233,0.00002l2.60083,-1.50159c0.11597,-0.06695 0.12487,-0.18649 -0.00681,-0.26302l-2.3864,-1.38683c-0.11521,-0.06695 -0.32161,-0.06219 -0.43758,0.00477l-2.60083,1.5016z" fill="#BAC1CE" id="svg_186"/>
   <path d="m44.92029,82.60808c-0.13251,0.0765 -0.13315,0.19128 -0.01797,0.25822l2.38643,1.38684c0.13165,0.0765 0.32979,0.0765 0.4623,0l2.60083,-1.50159c0.12422,-0.07172 0.12487,-0.18649 -0.00678,-0.26299l-2.38643,-1.38684c-0.11518,-0.06694 -0.31333,-0.06694 -0.43755,0.00478l-2.60083,1.50158z" fill="#BAC1CE" id="svg_188"/>
   <path d="m30.32914,83.12926c-0.12425,0.07174 -0.1167,0.19128 -0.00148,0.25823l2.38643,1.38684c0.13165,0.07651 0.3298,0.07651 0.45405,0.00477l4.20768,-2.42931c0.12425,-0.07174 0.1249,-0.18651 -0.00675,-0.26302l-2.38643,-1.38684c-0.11522,-0.06696 -0.32156,-0.07172 -0.44582,0.00002l-4.20768,2.42931z" fill="#BAC1CE" id="svg_190"/>
   <path d="m50.76224,83.18196c-0.12423,0.07172 -0.12487,0.18649 -0.00966,0.25345l2.89661,1.68333c0.13168,0.07652 0.32979,0.07651 0.45402,0.00478l3.71073,-2.14239c0.12425,-0.07174 0.12492,-0.18649 -0.00675,-0.26302l-2.89661,-1.68333c-0.11522,-0.06696 -0.31336,-0.06696 -0.43761,0.00478l-3.71073,2.1424z" fill="#BAC1CE" id="svg_192"/>
   <path d="m47.24205,85.21434c-0.12425,0.07173 -0.13318,0.19129 -0.01797,0.25825l2.89661,1.68333c0.13168,0.07652 0.33808,0.07172 0.46233,-0.00002l2.60909,-1.50636c0.11597,-0.06696 0.11664,-0.18172 -0.01503,-0.25823l-2.89661,-1.68333c-0.11521,-0.06696 -0.31336,-0.06696 -0.42933,-0.00001l-2.60909,1.50637z" fill="#BAC1CE" id="svg_194"/>
   <path d="m37.15099,87.09368c-0.12425,0.07174 -0.1249,0.18652 -0.00971,0.25345l2.38643,1.38684c0.13165,0.07651 0.32979,0.07651 0.45404,0.00477l6.86648,-3.96436c0.11597,-0.06695 0.11661,-0.18172 -0.01504,-0.25823l-2.38643,-1.38684c-0.11518,-0.06693 -0.31333,-0.06694 -0.42929,0.00002l-6.86648,3.96435z" fill="#BAC1CE" id="svg_196"/>
   <path d="m28.22948,77.73499c-0.13253,0.07652 -0.13318,0.19129 -0.018,0.25823l1.28375,0.74603c0.13165,0.0765 0.32979,0.07651 0.46233,-0.00002l2.6008,-1.50158c0.12425,-0.07173 0.1249,-0.18651 -0.00675,-0.26301l-1.28375,-0.74603c-0.11518,-0.06694 -0.31333,-0.06694 -0.43758,0.00479l-2.6008,1.50159z" fill="#BAC1CE" id="svg_198"/>
   <path d="m24.62643,79.81521c-0.12425,0.07173 -0.1249,0.18651 -0.00971,0.25344l1.28375,0.74603c0.13165,0.07651 0.32979,0.07651 0.45404,0.00478l2.60909,-1.50636c0.11597,-0.06696 0.11661,-0.18172 -0.01504,-0.25823l-1.28374,-0.74603c-0.11518,-0.06693 -0.31333,-0.06694 -0.4293,0.00002l-2.60909,1.50635z" fill="#BAC1CE" id="svg_200"/>
   <path d="m31.8325,75.65478c-0.13251,0.07651 -0.13316,0.19128 -0.01797,0.25822l1.28375,0.74603c0.13165,0.07651 0.32979,0.07651 0.4623,0l2.60083,-1.50159c0.11594,-0.06694 0.12487,-0.18649 -0.00678,-0.263l-1.28374,-0.74603c-0.11518,-0.06694 -0.32162,-0.06216 -0.43755,0.00478l-2.60084,1.50159z" fill="#BAC1CE" id="svg_202"/>
   <path d="m33.87162,77.13725c-0.13254,0.07652 -0.12495,0.19608 -0.00974,0.26303l2.3864,1.38683c0.13168,0.07652 0.32982,0.07652 0.46236,0l2.6008,-1.50157c0.12425,-0.07174 0.1249,-0.18652 -0.00678,-0.26304l-2.3864,-1.38682c-0.11522,-0.06696 -0.32159,-0.07174 -0.44584,-0.00001l-2.6008,1.50158z" fill="#BAC1CE" id="svg_204"/>
   <path d="m40.55779,89.0735c-0.12425,0.07174 -0.1249,0.18652 -0.00969,0.25347l2.89661,1.68333c0.13168,0.07652 0.3298,0.0765 0.45404,0.00477l2.60909,-1.50636c0.11596,-0.06695 0.11664,-0.18171 -0.01504,-0.25823l-2.89661,-1.68333c-0.11522,-0.06696 -0.31336,-0.06696 -0.42933,0l-2.60907,1.50635z" fill="#BAC1CE" id="svg_206"/>
   <path d="m42.43865,76.13783c-0.12425,0.07174 -0.12495,0.19604 -0.00974,0.263l2.38643,1.38684c0.13165,0.0765 0.33805,0.07174 0.4623,0l2.60909,-1.50636c0.11597,-0.06696 0.11661,-0.18173 -0.01503,-0.25823l-2.38643,-1.38684c-0.11522,-0.06696 -0.32156,-0.07172 -0.43753,-0.00478l-2.60909,1.50637z" fill="#BAC1CE" id="svg_208"/>
   <path d="m53.4259,63.18783c-0.12425,0.07174 -0.1249,0.18651 -0.00971,0.25345l1.28374,0.74603c0.13165,0.0765 0.32979,0.0765 0.45404,0.00477l2.60909,-1.50636c0.11597,-0.06696 0.11662,-0.18173 -0.01503,-0.25823l-1.28375,-0.74603c-0.11518,-0.06694 -0.31333,-0.06694 -0.42929,0.00002l-2.60909,1.50635z" fill="#BAC1CE" id="svg_210"/>
   <polygon fill="#BAC1CE" points="24.939958572387695,83.6593599319458 24.93522834777832,84.35798358917236 26.38606071472168,85.1956148147583 26.390789031982422,84.49699115753174 " id="svg_211"/>
   <polygon fill="#BAC1CE" points="22.44350814819336,82.21437549591064 22.438777923583984,82.91299152374268 23.889610290527344,83.75062274932861 23.894330978393555,83.05199909210205 " id="svg_212"/>
   <path d="m25.08908,42.12416c0.4629,-0.26726 0.84258,-0.05447 0.8441,0.48105c0.00151,0.53194 -0.37572,1.18532 -0.83862,1.45258c-0.46604,0.26907 -0.84573,0.05269 -0.84724,-0.47924c-0.00152,-0.53552 0.37572,-1.18532 0.84176,-1.45439z" fill="#FFFFFF" id="svg_215"/>
   <path d="m27.83528,40.53864c0.46292,-0.26727 0.84261,-0.05448 0.84412,0.48104c0.00151,0.53193 -0.37572,1.18531 -0.83864,1.45258c-0.46604,0.26907 -0.84259,0.05088 -0.8441,-0.48105c-0.00153,-0.53551 0.37257,-1.1835 0.83862,-1.45257z" fill="#FFFFFF" id="svg_217"/>
   <path d="m30.58149,38.95311c0.46604,-0.26907 0.84258,-0.05447 0.8441,0.48105c0.00151,0.53194 -0.37258,1.18351 -0.83862,1.45258s-0.84262,0.05089 -0.84412,-0.48104c-0.00152,-0.53552 0.3726,-1.18352 0.83864,-1.45259z" fill="#FFFFFF" id="svg_219"/>
   <path d="m71.34168,47.63417l-48.93842,28.25383c-0.10839,-1.98717 -0.04515,-6.06986 0.37935,-7.71379c0.1897,-0.73164 0.46971,-1.54459 0.98457,-2.12269c0.16258,-0.1806 0.3342,-0.31612 0.50582,-0.41546c0.61421,-0.35229 1.2465,-0.21677 1.61681,0.18066c0.47869,0.51481 0.69553,1.34585 1.12907,1.90586c0.28001,0.37031 0.83098,0.53289 1.32776,0.24384c0.18066,-0.10839 0.36132,-0.27097 0.50582,-0.52385c0.20779,-0.32516 0.29809,-0.71361 0.37037,-1.06583c0.21677,-1.04781 0.44258,-2.09557 0.65936,-3.14337c0.16258,-0.74966 0.31617,-1.51746 0.65037,-2.27617c0.54193,-1.21039 1.49938,-2.24916 2.44779,-2.80013c0.3342,-0.19869 0.66846,-0.3342 0.98458,-0.38839c1.21937,-0.22581 2.13167,0.54199 2.42072,1.8246c0.10839,0.43354 0.1445,0.9123 0.3342,1.25554c0.18066,0.31612 0.53294,0.46965 0.92134,0.25288c0.03611,-0.02707 0.07228,-0.04515 0.10839,-0.08126c0.13546,-0.10844 0.27097,-0.26198 0.39743,-0.41552c0.96649,-1.25554 1.13811,-2.85432 1.34584,-4.27238c0.19869,-1.40908 0.75876,-3.24271 1.89682,-4.05567c0.06323,-0.04515 0.11743,-0.08126 0.18066,-0.11743c0.59618,-0.35223 1.17422,-0.26192 1.60782,0c0.77679,0.48779 1.19231,1.51752 1.87873,2.16784c0.55103,0.5239 1.42716,0.74972 2.30335,0.2439c0.19869,-0.11743 0.39743,-0.27097 0.59613,-0.46067c1.23745,-1.2465 1.50842,-3.21559 2.1046,-4.91372c0.55097,-1.5807 1.5807,-3.18852 2.80007,-4.11885c0.14455,-0.11743 0.30713,-0.21677 0.46067,-0.30713c1.07487,-0.62325 2.16784,-0.59613 2.62845,0.25294c0.15359,0.28905 0.2439,0.63229 0.39744,0.92134c0.42456,0.79482 1.4362,0.83098 2.42976,0.26192c0.46971,-0.27097 0.93037,-0.67744 1.32781,-1.20135c1.0026,-1.32776 1.42716,-3.02589 2.21299,-4.50724c0.80386,-1.50842 2.01424,-2.75492 3.22463,-3.45045c0.97548,-0.56001 1.94197,-0.76775 2.69169,-0.4787c0.36127,0.12642 0.65936,0.35223 0.9484,0.58709c1.10202,0.86715 2.42978,7.70481 2.15881,10.47781z" fill="#E4E8F4" id="svg_221"/>
   <path d="m36.13471,46.3402l0.00029,0.10124c0.0057,2.00816 -0.89007,4.28321 -2.2481,6.08144l-2.69154,-3.33095l4.93935,-2.85173z" fill="#F9607F" id="svg_222"/>
   <path d="m30.63793,44.55557l0.0158,5.57445l2.69157,3.33092c-0.77181,1.02594 -1.6912,1.88918 -2.67516,2.45727c-2.73156,1.57707 -4.95146,0.30642 -4.96034,-2.82675c-0.0089,-3.13881 2.19657,-6.95882 4.92813,-8.53589z" fill="#F9BB4A" id="svg_223"/>
   <path d="m31.17776,42.98748c2.69242,-1.55447 4.89745,-0.33156 4.95516,2.72268l-4.93935,2.85174l-0.01581,-5.57442z" fill="#748BFD" id="svg_224"/>
   <polygon fill="#D4DAE8" points="54.28494644165039,37.05559253692627 54.299400329589844,42.151902198791504 38.776397705078125,51.11410999298096 38.76194763183594,46.01780033111572 " id="svg_225"/>
   <polygon fill="#D4DAE8" points="54.26432800292969,29.78239154815674 54.28093719482422,35.63807010650635 38.75794219970703,44.600281715393066 38.7413330078125,38.74460315704346 " id="svg_226"/>
   <polygon fill="#62A562" points="58.266357421875,31.832762718200684 58.28907775878906,39.84846210479736 57.0897216796875,40.540913581848145 57.06700134277344,32.52521228790283 " id="svg_227"/>
   <polygon fill="#BAC1CE" points="61.132080078125,27.4118013381958 61.162628173828125,38.189412117004395 59.9583625793457,38.8847017288208 59.92779541015625,28.107081413269043 " id="svg_228"/>
   <polygon fill="#4C7891" points="64.01165771484375,29.61436176300049 64.03126525878906,36.53320026397705 62.8319091796875,37.22565174102783 62.81230163574219,30.306811332702637 " id="svg_229"/>
   <polygon fill="#3E60DD" points="66.874267578125,24.09654140472412 66.90481567382812,34.87416172027588 65.7005615234375,35.569451332092285 65.66999816894531,24.791831016540527 " id="svg_230"/>
   <polygon fill="#37617B" points="89.48101806640625,20.215331077575684 89.40587615966797,46.722161293029785 83.76232147216797,50.001832008361816 83.83747100830078,23.49501132965088 " id="svg_234"/>
   <polygon fill="#416E84" points="83.83747100830078,23.49501132965088 83.76232147216797,50.001832008361816 78.08763885498047,46.725552558898926 78.16278076171875,20.21873188018799 " id="svg_236"/>
   <polygon fill="#4C7891" points="89.48101806640625,20.215331077575684 83.83747100830078,23.49501132965088 78.16278076171875,20.21873188018799 83.80633544921875,16.939051628112793 " id="svg_238"/>
   <polygon fill="#F34858" points="97.81431579589844,31.130322456359863 97.73916625976562,51.53339099884033 92.09561157226562,54.81306171417236 92.17076110839844,34.410000801086426 " id="svg_242"/>
   <polygon fill="#FA5168" points="92.17076110839844,34.410000801086426 92.09561157226562,54.81306171417236 86.4151382446289,51.533432960510254 86.49028778076172,31.130372047424316 " id="svg_244"/>
   <polygon fill="#F9607F" points="97.81431579589844,31.130322456359863 92.17076110839844,34.410000801086426 86.49028778076172,31.130372047424316 92.13383483886719,27.850701332092285 " id="svg_246"/>
   <polygon fill="#6EBA6E" points="106.1476058959961,42.04531192779541 106.07247161865234,62.44837284088135 100.42890930175781,59.62429141998291 100.50405883789062,45.32498264312744 " id="svg_250"/>
   <polygon fill="#75CA75" points="100.50405883789062,45.32498264312744 100.42890930175781,59.62429141998291 94.7484359741211,56.3446626663208 94.8235855102539,42.04536151885986 " id="svg_252"/>
   <polygon fill="#9AD898" points="106.1476058959961,42.04531192779541 100.50405883789062,45.32498264312744 94.8235855102539,42.04536151885986 100.46712493896484,38.7656831741333 " id="svg_254"/>
   <polygon fill="#EFAC41" points="114.47515106201172,52.956971168518066 114.40000915527344,61.15253162384033 108.75646209716797,64.43220233917236 108.83159637451172,56.2366418838501 " id="svg_258"/>
   <polygon fill="#F9BB4A" points="108.83159637451172,56.2366418838501 108.75646209716797,64.43220233917236 103.07593536376953,61.15255069732666 103.15108489990234,52.95700168609619 " id="svg_260"/>
   <polygon fill="#FED57A" points="114.47515106201172,52.956971168518066 108.83159637451172,56.2366418838501 103.15108489990234,52.95700168609619 108.79463958740234,49.67733097076416 " id="svg_262"/>
   <polygon fill="#CAD0DD" points="122.80841064453125,60.89281177520752 122.73326110839844,65.96373462677002 117.08970642089844,69.24340534210205 117.16485595703125,64.17248249053955 " id="svg_265"/>
   <polygon fill="#D4DAE8" points="117.16485595703125,64.17248249053955 117.08970642089844,69.24340534210205 111.40922546386719,65.96379566192627 111.484375,60.89286136627197 " id="svg_267"/>
   <polygon fill="#E4E8F4" points="122.80841064453125,60.89281177520752 117.16485595703125,64.17248249053955 111.484375,60.89286136627197 117.12793731689453,57.61318302154541 " id="svg_269"/>
   <polygon fill="#F34858" points="113.3338394165039,76.25226306915283 113.32132720947266,79.72326374053955 107.50328826904297,83.1043291091919 107.51580047607422,79.63332843780518 " id="svg_273"/>
   <polygon fill="#FA5168" points="107.51580047607422,79.63332843780518 107.50328826904297,83.1043291091919 96.22020721435547,84.01450824737549 96.23271942138672,80.5435152053833 " id="svg_275"/>
   <path d="m96.21511,83.81792l0.0125,-3.47099c-0.00018,0.06552 0.00153,0.13106 0.0051,0.19657l-0.01252,3.471c-0.00356,-0.06551 -0.00526,-0.13104 -0.00508,-0.19658z" fill="#6EBA6E" id="svg_277"/>
   <path d="m113.33384,76.25226l-5.81804,3.38107l-11.28308,0.91017c-0.08449,-1.54483 0.87841,-3.10561 2.91163,-4.28719c3.90845,-2.27134 10.26237,-2.27138 14.18949,-0.00405z" fill="#F9607F" id="svg_279"/>
   <polygon fill="#576CFB" points="115.9368667602539,84.47931385040283 115.92434692382812,87.95031452178955 108.80992126464844,83.84279346466064 108.82244110107422,80.37180042266846 " id="svg_281"/>
   <path d="m118.85553,80.39499l-0.01252,3.471c-0.00419,1.47852 -0.97614,2.95545 -2.91866,4.08432l0.01252,-3.47099c1.94251,-1.12888 2.91447,-2.6058 2.91866,-4.08433z" fill="#4562EF" id="svg_283"/>
   <path d="m115.89747,76.26023c3.92711,2.26731 3.94785,5.94774 0.0394,8.21908l-7.11443,-4.10751l7.07503,-4.11157z" fill="#748BFD" id="svg_285"/>
   <path d="m113.3801,84.47533c-3.90845,2.27135 -10.26236,2.27136 -14.19636,0.00007c-1.3344,-0.77042 -2.22176,-1.70448 -2.64774,-2.69844l10.68379,-0.85828l6.16031,3.55665z" fill="#FED57A" id="svg_287"/>
   <path d="m113.3801,84.47533l-0.01251,3.47102c-3.90845,2.27133 -10.26236,2.27135 -14.19636,0.00005c-1.3344,-0.77042 -2.22176,-1.70448 -2.64939,-2.71069l0.01251,-3.47099c0.42763,1.00619 1.31499,1.94025 2.64939,2.71067c3.934,2.2713 10.28791,2.27129 14.19636,-0.00006z" fill="#F9BB4A" id="svg_289"/>
  </g>
 </g>
</svg>